<?xml version="1.0" encoding="iso-8859-1"?>
<!-- Uploaded to: SVG Repo, www.svgrepo.com, Generator: SVG Repo Mixer Tools -->
<svg version="1.1" id="Layer_1" xmlns="http://www.w3.org/2000/svg" xmlns:xlink="http://www.w3.org/1999/xlink" 
	 viewBox="0 0 512.004 512.004" xml:space="preserve">
<polygon style="fill:#8D6E63;" points="324.295,464.285 324.295,494.931 187.709,494.931 187.709,464.285 256.002,395.992 "/>
<path d="M264.539,380.455v-22.537c52.5-4.354,93.903-48.403,93.903-102.012s-41.403-97.659-93.903-102.012v-40.207l74.354,22.366
	c0.854,0.256,1.622,0.341,2.476,0.341c2.732,0,5.293-1.28,6.915-3.585c2.134-2.988,2.134-6.915,0-9.902L262.917,3.393
	c-3.159-4.524-10.671-4.524-13.829,0l-85.366,119.512c-2.134,2.988-2.134,6.915,0,9.902c2.134,2.988,5.89,4.268,9.39,3.244
	l74.354-22.366v40.207c-52.5,4.354-93.903,48.403-93.903,102.012s41.403,97.659,93.903,102.012v22.537l-74.354,74.268
	c-1.537,1.622-2.476,3.756-2.476,6.061v42.683c0,4.695,3.841,8.537,8.537,8.537h153.659c4.695,0,8.537-3.841,8.537-8.537v-42.683
	c0-2.305-0.939-4.439-2.476-6.061L264.539,380.455z M264.539,34.979l55.403,77.512l-55.403-16.552V34.979z M264.539,170.967
	c40.293,4.012,72.39,36.11,76.403,76.403h-25.866c-3.756-26.122-24.415-46.781-50.537-50.537V170.967z M264.539,214.077
	c16.732,3.415,29.878,16.561,33.293,33.293h-33.293V214.077z M264.539,264.443h33.293c-3.415,16.732-16.561,29.878-33.293,33.293
	V264.443z M264.539,314.979c26.122-3.756,46.781-24.415,50.537-50.537h25.866c-4.012,40.293-36.11,72.39-76.403,76.403
	C264.539,340.845,264.539,314.979,264.539,314.979z M192.063,112.5l55.403-77.521V95.93L192.063,112.5z M247.466,170.967v25.866
	c-26.122,3.756-46.781,24.415-50.537,50.537h-25.866C175.075,207.077,207.173,174.979,247.466,170.967z M214.173,247.369
	c3.415-16.732,16.561-29.878,33.293-33.293v33.293H214.173z M247.466,264.443v33.293c-16.732-3.415-29.878-16.561-33.293-33.293
	H247.466z M171.063,264.443h25.866c3.756,26.122,24.415,46.781,50.537,50.537v25.866
	C207.173,336.833,175.075,304.735,171.063,264.443z M324.295,494.931H187.709v-30.646l68.293-68.293l68.293,68.293V494.931z"/>
<path style="fill:#00796B;" d="M297.832,264.443c-3.415,16.732-16.561,29.878-33.293,33.293v-33.293H297.832z"/>
<path style="fill:#004D40;" d="M340.941,264.443c-4.012,40.293-36.11,72.39-76.403,76.403v-25.866
	c26.122-3.756,46.781-24.415,50.537-50.537H340.941z"/>
<path style="fill:#00796B;" d="M247.466,314.979v25.866c-40.293-4.012-72.39-36.11-76.403-76.403h25.866
	C200.685,290.565,221.344,311.223,247.466,314.979z"/>
<path style="fill:#004D40;" d="M247.466,264.443v33.293c-16.732-3.415-29.878-16.561-33.293-33.293H247.466z"/>
<path style="fill:#00796B;" d="M247.466,214.077v33.293h-33.293C217.587,230.638,230.734,217.491,247.466,214.077z"/>
<path style="fill:#004D40;" d="M297.832,247.369h-33.293v-33.293C281.271,217.491,294.417,230.638,297.832,247.369z"/>
<path style="fill:#00796B;" d="M340.941,247.369h-25.866c-3.756-26.122-24.415-46.781-50.537-50.537v-25.866
	C304.832,174.979,336.929,207.077,340.941,247.369z"/>
<path style="fill:#004D40;" d="M247.466,170.967v25.866c-26.122,3.756-46.781,24.415-50.537,50.537h-25.866
	C175.075,207.077,207.173,174.979,247.466,170.967z"/>
<polygon style="fill:#8D6E63;" points="247.466,34.979 247.466,95.939 192.063,112.5 "/>
<g>
	<polygon style="fill:#6D4C41;" points="319.941,112.5 264.539,95.939 264.539,34.979 	"/>
	<rect x="187.709" y="469.321" style="fill:#6D4C41;" width="136.586" height="25.61"/>
</g>
</svg>