<?xml version="1.0" encoding="iso-8859-1"?>
<!-- Uploaded to: SVG Repo, www.svgrepo.com, Generator: SVG Repo Mixer Tools -->
<svg height="800px" width="800px" version="1.1" id="Layer_1" xmlns="http://www.w3.org/2000/svg" xmlns:xlink="http://www.w3.org/1999/xlink" 
	 viewBox="0 0 512 512" xml:space="preserve">
<path style="fill:#D50000;" d="M364.288,443.477c-35.84-1.792-47.445-12.288-58.624-22.443
	c-10.837-9.813-22.016-19.968-49.664-19.968c-27.648,0-38.827,10.155-49.664,19.968c-11.179,10.155-22.784,20.651-58.624,22.443
	L256,41.387L364.288,443.477z"/>
<path d="M426.667,247.467h-38.571c-11.008-42.411-41.984-77.824-84.139-93.611L264.277,6.315C263.253,2.56,259.84,0,256,0
	c-3.84,0-7.253,2.56-8.277,6.315l-39.68,147.456c-42.155,15.872-73.131,51.285-84.139,93.696H85.333
	c-4.693,0-8.533,3.84-8.533,8.533c0,4.693,3.84,8.533,8.533,8.533h35.328c-0.768,5.632-1.195,11.264-1.195,17.067
	c0,31.659,11.008,61.952,30.976,86.357l-22.187,82.091c-0.683,2.56-0.085,5.291,1.536,7.424c1.621,2.048,4.096,3.328,6.741,3.328
	c51.371,0,67.925-15.019,81.237-27.136c8.448-7.68,15.019-13.483,29.696-15.019v84.821c0,4.693,3.84,8.533,8.533,8.533
	c4.693,0,8.533-3.84,8.533-8.533v-84.821c14.677,1.536,21.248,7.339,29.696,15.019c13.312,12.117,29.867,27.136,81.237,27.136
	c2.645,0,5.12-1.28,6.741-3.328c1.621-2.133,2.219-4.864,1.536-7.424l-22.187-82.091c19.968-24.405,30.976-54.699,30.976-86.357
	c0-5.803-0.427-11.435-1.195-17.067h35.328c4.693,0,8.533-3.84,8.533-8.533C435.2,251.307,431.36,247.467,426.667,247.467z
	 M370.432,247.467h-41.301l-19.456-72.533C339.2,189.781,361.045,216.235,370.432,247.467z M202.325,174.933l-19.456,72.533h-41.301
	C150.955,216.235,172.8,189.781,202.325,174.933z M136.533,281.6c0-5.803,0.427-11.435,1.28-17.067h40.448l-22.187,82.347
	C143.445,327.595,136.533,304.981,136.533,281.6z M364.288,443.477c-35.84-1.792-47.445-12.288-58.624-22.443
	c-10.837-9.813-22.016-19.968-49.664-19.968c-27.648,0-38.827,10.155-49.664,19.968c-11.179,10.155-22.784,20.651-58.624,22.443
	L256,41.387L364.288,443.477z M355.925,346.88l-22.187-82.347h40.448c0.853,5.632,1.28,11.264,1.28,17.067
	C375.467,304.981,368.555,327.595,355.925,346.88z"/>
<g>
	<path style="fill:#B71C1C;" d="M202.325,174.933l-19.456,72.533h-41.301C150.955,216.235,172.8,189.781,202.325,174.933z"/>
	<path style="fill:#B71C1C;" d="M178.261,264.533l-22.187,82.347c-12.629-19.285-19.541-41.899-19.541-65.28
		c0-5.803,0.427-11.435,1.28-17.067H178.261z"/>
	<path style="fill:#B71C1C;" d="M375.467,281.6c0,23.381-6.912,45.995-19.541,65.28l-22.187-82.347h40.448
		C375.04,270.165,375.467,275.797,375.467,281.6z"/>
	<path style="fill:#B71C1C;" d="M370.432,247.467h-41.301l-19.456-72.533C339.2,189.781,361.045,216.235,370.432,247.467z"/>
	<path style="fill:#B71C1C;" d="M305.664,395.691c-10.837-9.813-22.016-19.968-49.664-19.968c-27.648,0-38.827,10.155-49.664,19.968
		c-10.419,9.463-21.231,19.217-51.669,21.956l-6.955,25.83c35.84-1.792,47.445-12.288,58.624-22.443
		c10.837-9.813,22.016-19.968,49.664-19.968c27.648,0,38.827,10.155,49.664,19.968c11.179,10.155,22.784,20.651,58.624,22.443
		l-6.955-25.83C326.895,414.908,316.083,405.154,305.664,395.691z"/>
</g>
</svg>