<?xml version="1.0" encoding="iso-8859-1"?>
<!-- Uploaded to: SVG Repo, www.svgrepo.com, Generator: SVG Repo Mixer Tools -->
<svg version="1.1" id="Layer_1" xmlns="http://www.w3.org/2000/svg" xmlns:xlink="http://www.w3.org/1999/xlink" 
	 viewBox="0 0 512 512" xml:space="preserve">
<polygon style="fill:#EFEFEF;" points="482.909,445.091 482.909,165.818 29.091,165.818 29.091,445.091 11.636,445.091 
	11.636,491.636 500.364,491.636 500.364,445.091 "/>
<path style="fill:#0EDDF0;" d="M157.091,241.455L157.091,241.455c35.347,0,64,28.653,64,64l0,0c0,35.347-28.653,64-64,64l0,0
	c-35.347,0-64-28.653-64-64l0,0C93.091,270.108,121.744,241.455,157.091,241.455z"/>
<path style="fill:#F15A29;" d="M354.909,241.455L354.909,241.455c35.347,0,64,28.653,64,64l0,0c0,35.347-28.653,64-64,64l0,0
	c-35.347,0-64-28.653-64-64l0,0C290.909,270.108,319.562,241.455,354.909,241.455z"/>
<g>
	<rect x="11.636" y="119.273" style="fill:#A7A9AC;" width="488.727" height="46.545"/>
	<rect x="162.909" y="20.364" style="fill:#A7A9AC;" width="186.182" height="46.545"/>
</g>
<rect x="40.727" y="72.727" style="fill:#0EDDF0;" width="52.364" height="46.545"/>
<rect x="418.909" y="72.727" style="fill:#F15A29;" width="52.364" height="46.545"/>
<g>
	<path style="fill:#231F20;" d="M157.091,381.091c41.706,0,75.636-33.93,75.636-75.636s-33.93-75.636-75.636-75.636
		s-75.636,33.93-75.636,75.636S115.385,381.091,157.091,381.091z M157.091,253.091c28.873,0,52.364,23.49,52.364,52.364
		s-23.49,52.364-52.364,52.364s-52.364-23.49-52.364-52.364S128.218,253.091,157.091,253.091z"/>
	<path style="fill:#231F20;" d="M354.909,381.091c41.706,0,75.636-33.93,75.636-75.636s-33.93-75.636-75.636-75.636
		s-75.636,33.93-75.636,75.636S313.203,381.091,354.909,381.091z M354.909,253.091c28.873,0,52.364,23.49,52.364,52.364
		s-23.49,52.364-52.364,52.364s-52.364-23.49-52.364-52.364S326.036,253.091,354.909,253.091z"/>
	<path style="fill:#231F20;" d="M130.909,317.091h14.545v14.545c0,6.426,5.21,11.636,11.636,11.636
		c6.427,0,11.636-5.211,11.636-11.636v-14.545h14.545c6.427,0,11.636-5.211,11.636-11.636s-5.21-11.636-11.636-11.636h-14.545
		v-14.545c0-6.426-5.21-11.636-11.636-11.636c-6.427,0-11.636,5.211-11.636,11.636v14.545h-14.545
		c-6.427,0-11.636,5.211-11.636,11.636S124.482,317.091,130.909,317.091z"/>
	<path style="fill:#231F20;" d="M328.727,317.091h52.364c6.427,0,11.636-5.211,11.636-11.636s-5.21-11.636-11.636-11.636h-52.364
		c-6.427,0-11.636,5.211-11.636,11.636S322.3,317.091,328.727,317.091z"/>
	<path style="fill:#231F20;" d="M500.364,177.455c6.427,0,11.636-5.211,11.636-11.636v-46.545c0-6.426-5.21-11.636-11.636-11.636
		h-17.455V72.727c0-6.426-5.21-11.636-11.636-11.636h-52.364c-6.427,0-11.636,5.211-11.636,11.636v34.909h-46.545V20.364
		c0-6.426-5.21-11.636-11.636-11.636H162.909c-6.427,0-11.636,5.211-11.636,11.636v87.273h-46.545V72.727
		c0-6.426-5.21-11.636-11.636-11.636H40.727c-6.427,0-11.636,5.211-11.636,11.636v34.909H11.636C5.21,107.636,0,112.847,0,119.273
		v46.545c0,6.426,5.21,11.636,11.636,11.636h5.818v256h-5.818C5.21,433.455,0,438.665,0,445.091v46.545
		c0,6.426,5.21,11.636,11.636,11.636h488.727c6.427,0,11.636-5.211,11.636-11.636v-46.545c0-6.426-5.21-11.636-11.636-11.636h-5.818
		v-256H500.364z M430.545,84.364h29.091v23.273h-29.091V84.364z M174.545,32h162.909v23.273H174.545V32z M174.545,78.545h162.909
		v29.091H174.545V78.545z M52.364,84.364h29.091v23.273H52.364V84.364z M23.273,130.909h465.455v23.273H23.273V130.909z
		 M471.273,433.455h-71.564c-6.427,0-11.636,5.211-11.636,11.636c0,6.426,5.21,11.636,11.636,11.636h89.018V480H23.273v-23.273
		h267.636c6.427,0,11.636-5.211,11.636-11.636c0-6.426-5.21-11.636-11.636-11.636H40.727v-256h430.545V433.455z"/>
	<path style="fill:#231F20;" d="M346.764,433.455H345.6c-6.427,0-11.636,5.211-11.636,11.636c0,6.426,5.21,11.636,11.636,11.636
		h1.164c6.427,0,11.636-5.211,11.636-11.636C358.4,438.665,353.19,433.455,346.764,433.455z"/>
</g>
</svg>