<?xml version="1.0" encoding="UTF-8" standalone="no"?>
<svg
   xmlns:dc="http://purl.org/dc/elements/1.1/"
   xmlns:cc="http://creativecommons.org/ns#"
   xmlns:rdf="http://www.w3.org/1999/02/22-rdf-syntax-ns#"
   xmlns:svg="http://www.w3.org/2000/svg"
   xmlns="http://www.w3.org/2000/svg"
   xmlns:sodipodi="http://sodipodi.sourceforge.net/DTD/sodipodi-0.dtd"
   xmlns:inkscape="http://www.inkscape.org/namespaces/inkscape"
   inkscape:export-ydpi="768"
   inkscape:export-xdpi="768"
   inkscape:export-filename="C:\Users\adnan\Downloads\export filled line + export expand adnan\export filled line\png\7 - Eco Tag.png"
   sodipodi:docname="8 - Solar Energy.svg"
   inkscape:version="1.0 (4035a4fb49, 2020-05-01)"
   id="svg979"
   version="1.1"
   viewBox="0 0 16.933334 16.933333"
   height="48pt"
   width="48pt">
  <defs
     id="defs973" />
  <sodipodi:namedview
     inkscape:snap-others="false"
     inkscape:snap-nodes="false"
     inkscape:bbox-nodes="true"
     inkscape:snap-bbox="true"
     inkscape:document-rotation="0"
     inkscape:window-maximized="1"
     inkscape:window-y="-8"
     inkscape:window-x="-8"
     inkscape:window-height="706"
     inkscape:window-width="1366"
     units="pt"
     showgrid="false"
     inkscape:current-layer="layer1"
     inkscape:document-units="pt"
     inkscape:cy="32"
     inkscape:cx="32"
     inkscape:zoom="8.546875"
     inkscape:pageshadow="2"
     inkscape:pageopacity="0.0"
     borderopacity="1.0"
     bordercolor="#666666"
     pagecolor="#ffffff"
     id="base">
    <inkscape:grid
       id="grid1526"
       type="xygrid" />
    <sodipodi:guide
       inkscape:locked="false"
       id="guide1528"
       orientation="56.666615,0"
       position="0.97013909,15.963209" />
    <sodipodi:guide
       inkscape:locked="false"
       id="guide1530"
       orientation="0,56.666667"
       position="0.97013909,0.97016731" />
    <sodipodi:guide
       inkscape:locked="false"
       id="guide1532"
       orientation="-56.666615,0"
       position="15.963195,0.97016731" />
    <sodipodi:guide
       inkscape:locked="false"
       id="guide1534"
       orientation="0,-56.666667"
       position="15.963195,15.963209" />
  </sodipodi:namedview>
  <metadata
     id="metadata976">
    <rdf:RDF>
      <cc:Work
         rdf:about="">
        <dc:format>image/svg+xml</dc:format>
        <dc:type
           rdf:resource="http://purl.org/dc/dcmitype/StillImage" />
        <dc:title></dc:title>
      </cc:Work>
    </rdf:RDF>
  </metadata>
  <g
     transform="translate(0,-280.06668)"
     id="layer1"
     inkscape:groupmode="layer"
     inkscape:label="Layer 1">
    <g
       transform="matrix(1.2432119,0,0,1.2432119,0.57286939,-72.806677)"
       style="display:inline;stroke-width:0.804368"
       id="g1305">
      <path
         style="color:#000000;font-style:normal;font-variant:normal;font-weight:normal;font-stretch:normal;font-size:medium;line-height:normal;font-family:sans-serif;font-variant-ligatures:normal;font-variant-position:normal;font-variant-caps:normal;font-variant-numeric:normal;font-variant-alternates:normal;font-variant-east-asian:normal;font-feature-settings:normal;font-variation-settings:normal;text-indent:0;text-align:start;text-decoration:none;text-decoration-line:none;text-decoration-style:solid;text-decoration-color:#000000;letter-spacing:normal;word-spacing:normal;text-transform:none;writing-mode:lr-tb;direction:ltr;text-orientation:mixed;dominant-baseline:auto;baseline-shift:baseline;text-anchor:start;white-space:normal;shape-padding:0;shape-margin:0;inline-size:0;clip-rule:nonzero;display:inline;overflow:visible;visibility:visible;isolation:auto;mix-blend-mode:normal;color-interpolation:sRGB;color-interpolation-filters:linearRGB;solid-color:#000000;solid-opacity:1;vector-effect:none;fill:#f5f6e8;fill-opacity:1;fill-rule:nonzero;stroke:none;stroke-width:0.425645;stroke-linecap:round;stroke-linejoin:round;stroke-miterlimit:4;stroke-dasharray:none;stroke-dashoffset:0;stroke-opacity:1;color-rendering:auto;image-rendering:auto;shape-rendering:auto;text-rendering:auto;enable-background:accumulate;stop-color:#000000"
         d="m 5.5546875,293.01367 -3.5722656,0.0176 a 0.26460996,0.26460996 0 0 0 -0.2617188,0.26367 v 0.79492 c -2.8e-6,0.43525 0.3577235,0.79297 0.7929688,0.79297 h 3.0429687 a 0.26460996,0.26460996 0 0 0 0.2636719,-0.26367 v -1.3418 a 0.26460996,0.26460996 0 0 0 -0.265625,-0.26367 z"
         id="path1107" />
      <path
         style="color:#000000;font-style:normal;font-variant:normal;font-weight:normal;font-stretch:normal;font-size:medium;line-height:normal;font-family:sans-serif;font-variant-ligatures:normal;font-variant-position:normal;font-variant-caps:normal;font-variant-numeric:normal;font-variant-alternates:normal;font-variant-east-asian:normal;font-feature-settings:normal;font-variation-settings:normal;text-indent:0;text-align:start;text-decoration:none;text-decoration-line:none;text-decoration-style:solid;text-decoration-color:#000000;letter-spacing:normal;word-spacing:normal;text-transform:none;writing-mode:lr-tb;direction:ltr;text-orientation:mixed;dominant-baseline:auto;baseline-shift:baseline;text-anchor:start;white-space:normal;shape-padding:0;shape-margin:0;inline-size:0;clip-rule:nonzero;display:inline;overflow:visible;visibility:visible;isolation:auto;mix-blend-mode:normal;color-interpolation:sRGB;color-interpolation-filters:linearRGB;solid-color:#000000;solid-opacity:1;vector-effect:none;fill:#f5f6e8;fill-opacity:1;fill-rule:nonzero;stroke:none;stroke-width:0.425645;stroke-linecap:round;stroke-linejoin:round;stroke-miterlimit:4;stroke-dasharray:none;stroke-dashoffset:0;stroke-opacity:1;color-rendering:auto;image-rendering:auto;shape-rendering:auto;text-rendering:auto;enable-background:accumulate;stop-color:#000000"
         d="m 7.1445312,293.01367 a 0.26460996,0.26460996 0 0 0 -0.265625,0.26367 v 1.3418 a 0.26460996,0.26460996 0 0 0 0.265625,0.26367 h 3.0410158 c 0.435245,0 0.794925,-0.35772 0.794922,-0.79297 v -0.79492 a 0.26460996,0.26460996 0 0 0 -0.263672,-0.26367 z"
         id="path1124" />
      <path
         id="path1256"
         style="color:#000000;font-style:normal;font-variant:normal;font-weight:normal;font-stretch:normal;font-size:medium;line-height:normal;font-family:sans-serif;font-variant-ligatures:normal;font-variant-position:normal;font-variant-caps:normal;font-variant-numeric:normal;font-variant-alternates:normal;font-variant-east-asian:normal;font-feature-settings:normal;font-variation-settings:normal;text-indent:0;text-align:start;text-decoration:none;text-decoration-line:none;text-decoration-style:solid;text-decoration-color:#000000;letter-spacing:normal;word-spacing:normal;text-transform:none;writing-mode:lr-tb;direction:ltr;text-orientation:mixed;dominant-baseline:auto;baseline-shift:baseline;text-anchor:start;white-space:normal;shape-padding:0;shape-margin:0;inline-size:0;clip-rule:nonzero;display:inline;overflow:visible;visibility:visible;isolation:auto;mix-blend-mode:normal;color-interpolation:sRGB;color-interpolation-filters:linearRGB;solid-color:#000000;solid-opacity:1;vector-effect:none;fill:#dbdccf;fill-opacity:1;fill-rule:nonzero;stroke:none;stroke-width:0.425645;stroke-linecap:round;stroke-linejoin:round;stroke-miterlimit:4;stroke-dasharray:none;stroke-dashoffset:0;stroke-opacity:1;color-rendering:auto;image-rendering:auto;shape-rendering:auto;text-rendering:auto;enable-background:accumulate;stop-color:#000000"
         d="m 1.7207031,294.08961 3.8339966,-0.0176 c 0.1461198,-5.6e-4 0.2650325,0.11743 0.2656168,0.26355 v -0.52916 c -5.843e-4,-0.14612 -0.119497,-0.26411 -0.2656168,-0.26355 l -3.8339966,0.0176 z"
         sodipodi:nodetypes="ccccccc" />
      <path
         id="path1264"
         style="color:#000000;font-style:normal;font-variant:normal;font-weight:normal;font-stretch:normal;font-size:medium;line-height:normal;font-family:sans-serif;font-variant-ligatures:normal;font-variant-position:normal;font-variant-caps:normal;font-variant-numeric:normal;font-variant-alternates:normal;font-variant-east-asian:normal;font-feature-settings:normal;font-variation-settings:normal;text-indent:0;text-align:start;text-decoration:none;text-decoration-line:none;text-decoration-style:solid;text-decoration-color:#000000;letter-spacing:normal;word-spacing:normal;text-transform:none;writing-mode:lr-tb;direction:ltr;text-orientation:mixed;dominant-baseline:auto;baseline-shift:baseline;text-anchor:start;white-space:normal;shape-padding:0;shape-margin:0;inline-size:0;clip-rule:nonzero;display:inline;overflow:visible;visibility:visible;isolation:auto;mix-blend-mode:normal;color-interpolation:sRGB;color-interpolation-filters:linearRGB;solid-color:#000000;solid-opacity:1;vector-effect:none;fill:#dbdccf;fill-opacity:1;fill-rule:nonzero;stroke:none;stroke-width:0.425645;stroke-linecap:round;stroke-linejoin:round;stroke-miterlimit:4;stroke-dasharray:none;stroke-dashoffset:0;stroke-opacity:1;color-rendering:auto;image-rendering:auto;shape-rendering:auto;text-rendering:auto;enable-background:accumulate;stop-color:#000000"
         d="m 10.980469,293.56068 -3.8356856,-0.0178 c -0.1463213,-8.4e-4 -0.2655499,0.11723 -0.2661336,0.26355 v 0.52916 c 5.837e-4,-0.14632 0.1198123,-0.26439 0.2661336,-0.26355 l 3.8356856,0.0178 z"
         sodipodi:nodetypes="ccccccc" />
      <path
         style="color:#000000;font-style:normal;font-variant:normal;font-weight:normal;font-stretch:normal;font-size:medium;line-height:normal;font-family:sans-serif;font-variant-ligatures:normal;font-variant-position:normal;font-variant-caps:normal;font-variant-numeric:normal;font-variant-alternates:normal;font-variant-east-asian:normal;font-feature-settings:normal;font-variation-settings:normal;text-indent:0;text-align:start;text-decoration:none;text-decoration-line:none;text-decoration-style:solid;text-decoration-color:#000000;letter-spacing:normal;word-spacing:normal;text-transform:none;writing-mode:lr-tb;direction:ltr;text-orientation:mixed;dominant-baseline:auto;baseline-shift:baseline;text-anchor:start;white-space:normal;shape-padding:0;shape-margin:0;inline-size:0;clip-rule:nonzero;display:inline;overflow:visible;visibility:visible;isolation:auto;mix-blend-mode:normal;color-interpolation:sRGB;color-interpolation-filters:linearRGB;solid-color:#000000;solid-opacity:1;vector-effect:none;fill:#143441;fill-opacity:1;fill-rule:nonzero;stroke:none;stroke-width:0.425645;stroke-linecap:round;stroke-linejoin:round;stroke-miterlimit:4;stroke-dasharray:none;stroke-dashoffset:0;stroke-opacity:1;color-rendering:auto;image-rendering:auto;shape-rendering:auto;text-rendering:auto;enable-background:accumulate;stop-color:#000000"
         d="m 5.5566406,293.01367 a 0.26460996,0.26460996 0 0 0 -0.265625,0.26367 v 2.91211 a 0.26460996,0.26460996 0 0 0 0.265625,0.26367 h 1.5878906 a 0.26460996,0.26460996 0 0 0 0.2636719,-0.26367 v -2.91211 a 0.26460996,0.26460996 0 0 0 -0.2636719,-0.26367 z"
         id="path1142" />
      <path
         style="color:#000000;font-style:normal;font-variant:normal;font-weight:normal;font-stretch:normal;font-size:medium;line-height:normal;font-family:sans-serif;font-variant-ligatures:normal;font-variant-position:normal;font-variant-caps:normal;font-variant-numeric:normal;font-variant-alternates:normal;font-variant-east-asian:normal;font-feature-settings:normal;font-variation-settings:normal;text-indent:0;text-align:start;text-decoration:none;text-decoration-line:none;text-decoration-style:solid;text-decoration-color:#000000;letter-spacing:normal;word-spacing:normal;text-transform:none;writing-mode:lr-tb;direction:ltr;text-orientation:mixed;dominant-baseline:auto;baseline-shift:baseline;text-anchor:start;white-space:normal;shape-padding:0;shape-margin:0;inline-size:0;clip-rule:nonzero;display:inline;overflow:visible;visibility:visible;isolation:auto;mix-blend-mode:normal;color-interpolation:sRGB;color-interpolation-filters:linearRGB;solid-color:#000000;solid-opacity:1;vector-effect:none;fill:#2276bc;fill-opacity:1;fill-rule:nonzero;stroke:none;stroke-width:0.425645;stroke-linecap:round;stroke-linejoin:round;stroke-miterlimit:4;stroke-dasharray:none;stroke-dashoffset:0;stroke-opacity:1;color-rendering:auto;image-rendering:auto;shape-rendering:auto;text-rendering:auto;enable-background:accumulate;stop-color:#000000"
         d="m 1.0585938,288.25195 c -0.43560752,0 -0.7824796,0.38542 -0.73437505,0.81836 l 0.41210937,3.71094 c 0.0479145,0.43123 0.41767758,0.76172 0.85156248,0.76172 h 9.5253904 c 0.433885,0 0.801693,-0.33049 0.84961,-0.76172 L 12.375,289.07031 c 0.0481,-0.43294 -0.296814,-0.81836 -0.732422,-0.81836 z"
         id="path1163" />
      <path
         id="path1269"
         style="fill:#206cad;fill-opacity:1;stroke:none;stroke-width:1.60874;stroke-linecap:round;stroke-linejoin:round;stroke-opacity:1"
         d="m 4.0019531,14.935547 c -1.6463906,0 -2.9591562,1.457441 -2.7773437,3.09375 l 0.3515625,3.162109 c 9.7263471,3.05572 23.5905361,-2.680156 31.5000001,3.251953 2.722162,2.041615 3.752301,7.005091 5.705078,10.490235 h 3.222656 c 1.639881,0 3.029834,-1.249061 3.210938,-2.878906 l 1.55664,-14.025391 c 0.181796,-1.636309 -1.121185,-3.09375 -2.767578,-3.09375 z"
         transform="matrix(0.26458333,0,0,0.26458333,0,284.3)" />
      <path
         id="path1088"
         style="color:#000000;font-style:normal;font-variant:normal;font-weight:normal;font-stretch:normal;font-size:medium;line-height:normal;font-family:sans-serif;font-variant-ligatures:normal;font-variant-position:normal;font-variant-caps:normal;font-variant-numeric:normal;font-variant-alternates:normal;font-variant-east-asian:normal;font-feature-settings:normal;font-variation-settings:normal;text-indent:0;text-align:start;text-decoration:none;text-decoration-line:none;text-decoration-style:solid;text-decoration-color:#000000;letter-spacing:normal;word-spacing:normal;text-transform:none;writing-mode:lr-tb;direction:ltr;text-orientation:mixed;dominant-baseline:auto;baseline-shift:baseline;text-anchor:start;white-space:normal;shape-padding:0;shape-margin:0;inline-size:0;clip-rule:nonzero;display:inline;overflow:visible;visibility:visible;opacity:1;isolation:auto;mix-blend-mode:normal;color-interpolation:sRGB;color-interpolation-filters:linearRGB;solid-color:#000000;solid-opacity:1;vector-effect:none;fill:#f5f6e8;fill-opacity:1;fill-rule:nonzero;stroke:none;stroke-width:1.60874;stroke-linecap:round;stroke-linejoin:round;stroke-miterlimit:4;stroke-dasharray:none;stroke-dashoffset:0;stroke-opacity:1;color-rendering:auto;image-rendering:auto;shape-rendering:auto;text-rendering:auto;enable-background:accumulate;stop-color:#000000;stop-opacity:1"
         d="m 23.001953,14.935547 v 19.998047 h 2 V 14.935547 Z"
         transform="matrix(0.26458333,0,0,0.26458333,0,284.3)" />
      <path
         style="color:#000000;font-style:normal;font-variant:normal;font-weight:normal;font-stretch:normal;font-size:medium;line-height:normal;font-family:sans-serif;font-variant-ligatures:normal;font-variant-position:normal;font-variant-caps:normal;font-variant-numeric:normal;font-variant-alternates:normal;font-variant-east-asian:normal;font-feature-settings:normal;font-variation-settings:normal;text-indent:0;text-align:start;text-decoration:none;text-decoration-line:none;text-decoration-style:solid;text-decoration-color:#000000;letter-spacing:normal;word-spacing:normal;text-transform:none;writing-mode:lr-tb;direction:ltr;text-orientation:mixed;dominant-baseline:auto;baseline-shift:baseline;text-anchor:start;white-space:normal;shape-padding:0;shape-margin:0;inline-size:0;clip-rule:nonzero;display:inline;overflow:visible;visibility:visible;opacity:1;isolation:auto;mix-blend-mode:normal;color-interpolation:sRGB;color-interpolation-filters:linearRGB;solid-color:#000000;solid-opacity:1;vector-effect:none;fill:#143441;fill-opacity:1;fill-rule:nonzero;stroke:none;stroke-width:0.425645;stroke-linecap:round;stroke-linejoin:round;stroke-miterlimit:4;stroke-dasharray:none;stroke-dashoffset:0;stroke-opacity:1;color-rendering:auto;image-rendering:auto;shape-rendering:auto;text-rendering:auto;enable-background:accumulate;stop-color:#000000;stop-opacity:1"
         d="m 4.8945312,295.92383 a 0.2645835,0.2645835 0 0 0 -0.2636718,0.26562 0.2645835,0.2645835 0 0 0 0.2636718,0.26367 h 2.9101563 a 0.2645835,0.2645835 0 0 0 0.265625,-0.26367 0.2645835,0.2645835 0 0 0 -0.265625,-0.26562 z"
         id="path1157" />
      <path
         id="path1084"
         style="color:#000000;font-style:normal;font-variant:normal;font-weight:normal;font-stretch:normal;font-size:medium;line-height:normal;font-family:sans-serif;font-variant-ligatures:normal;font-variant-position:normal;font-variant-caps:normal;font-variant-numeric:normal;font-variant-alternates:normal;font-variant-east-asian:normal;font-feature-settings:normal;font-variation-settings:normal;text-indent:0;text-align:start;text-decoration:none;text-decoration-line:none;text-decoration-style:solid;text-decoration-color:#000000;letter-spacing:normal;word-spacing:normal;text-transform:none;writing-mode:lr-tb;direction:ltr;text-orientation:mixed;dominant-baseline:auto;baseline-shift:baseline;text-anchor:start;white-space:normal;shape-padding:0;shape-margin:0;inline-size:0;clip-rule:nonzero;display:inline;overflow:visible;visibility:visible;opacity:1;isolation:auto;mix-blend-mode:normal;color-interpolation:sRGB;color-interpolation-filters:linearRGB;solid-color:#000000;solid-opacity:1;vector-effect:none;fill:#f5f6e8;fill-opacity:1;fill-rule:nonzero;stroke:none;stroke-width:1.60874;stroke-linecap:round;stroke-linejoin:round;stroke-miterlimit:4;stroke-dasharray:none;stroke-dashoffset:0;stroke-opacity:1;color-rendering:auto;image-rendering:auto;shape-rendering:auto;text-rendering:auto;enable-background:accumulate;stop-color:#000000;stop-opacity:1"
         d="m 15,14.935547 v 19.998047 h 2 V 14.935547 Z"
         transform="matrix(0.26458333,0,0,0.26458333,0,284.3)" />
      <path
         id="path1079"
         style="color:#000000;font-style:normal;font-variant:normal;font-weight:normal;font-stretch:normal;font-size:medium;line-height:normal;font-family:sans-serif;font-variant-ligatures:normal;font-variant-position:normal;font-variant-caps:normal;font-variant-numeric:normal;font-variant-alternates:normal;font-variant-east-asian:normal;font-feature-settings:normal;font-variation-settings:normal;text-indent:0;text-align:start;text-decoration:none;text-decoration-line:none;text-decoration-style:solid;text-decoration-color:#000000;letter-spacing:normal;word-spacing:normal;text-transform:none;writing-mode:lr-tb;direction:ltr;text-orientation:mixed;dominant-baseline:auto;baseline-shift:baseline;text-anchor:start;white-space:normal;shape-padding:0;shape-margin:0;inline-size:0;clip-rule:nonzero;display:inline;overflow:visible;visibility:visible;opacity:1;isolation:auto;mix-blend-mode:normal;color-interpolation:sRGB;color-interpolation-filters:linearRGB;solid-color:#000000;solid-opacity:1;vector-effect:none;fill:#f5f6e8;fill-opacity:1;fill-rule:nonzero;stroke:none;stroke-width:1.60874;stroke-linecap:round;stroke-linejoin:round;stroke-miterlimit:4;stroke-dasharray:none;stroke-dashoffset:0;stroke-opacity:1;color-rendering:auto;image-rendering:auto;shape-rendering:auto;text-rendering:auto;enable-background:accumulate;stop-color:#000000;stop-opacity:1"
         d="m 6.9980469,14.935547 v 19.998047 h 2 V 14.935547 Z"
         transform="matrix(0.26458333,0,0,0.26458333,0,284.3)" />
      <path
         id="path1092"
         style="color:#000000;font-style:normal;font-variant:normal;font-weight:normal;font-stretch:normal;font-size:medium;line-height:normal;font-family:sans-serif;font-variant-ligatures:normal;font-variant-position:normal;font-variant-caps:normal;font-variant-numeric:normal;font-variant-alternates:normal;font-variant-east-asian:normal;font-feature-settings:normal;font-variation-settings:normal;text-indent:0;text-align:start;text-decoration:none;text-decoration-line:none;text-decoration-style:solid;text-decoration-color:#000000;letter-spacing:normal;word-spacing:normal;text-transform:none;writing-mode:lr-tb;direction:ltr;text-orientation:mixed;dominant-baseline:auto;baseline-shift:baseline;text-anchor:start;white-space:normal;shape-padding:0;shape-margin:0;inline-size:0;clip-rule:nonzero;display:inline;overflow:visible;visibility:visible;opacity:1;isolation:auto;mix-blend-mode:normal;color-interpolation:sRGB;color-interpolation-filters:linearRGB;solid-color:#000000;solid-opacity:1;vector-effect:none;fill:#f5f6e8;fill-opacity:1;fill-rule:nonzero;stroke:none;stroke-width:1.60874;stroke-linecap:round;stroke-linejoin:round;stroke-miterlimit:4;stroke-dasharray:none;stroke-dashoffset:0;stroke-opacity:1;color-rendering:auto;image-rendering:auto;shape-rendering:auto;text-rendering:auto;enable-background:accumulate;stop-color:#000000;stop-opacity:1"
         d="m 30.996094,14.935547 v 19.998047 h 2 V 14.935547 Z"
         transform="matrix(0.26458333,0,0,0.26458333,0,284.3)" />
      <path
         id="path1097"
         style="color:#000000;font-style:normal;font-variant:normal;font-weight:normal;font-stretch:normal;font-size:medium;line-height:normal;font-family:sans-serif;font-variant-ligatures:normal;font-variant-position:normal;font-variant-caps:normal;font-variant-numeric:normal;font-variant-alternates:normal;font-variant-east-asian:normal;font-feature-settings:normal;font-variation-settings:normal;text-indent:0;text-align:start;text-decoration:none;text-decoration-line:none;text-decoration-style:solid;text-decoration-color:#000000;letter-spacing:normal;word-spacing:normal;text-transform:none;writing-mode:lr-tb;direction:ltr;text-orientation:mixed;dominant-baseline:auto;baseline-shift:baseline;text-anchor:start;white-space:normal;shape-padding:0;shape-margin:0;inline-size:0;clip-rule:nonzero;display:inline;overflow:visible;visibility:visible;opacity:1;isolation:auto;mix-blend-mode:normal;color-interpolation:sRGB;color-interpolation-filters:linearRGB;solid-color:#000000;solid-opacity:1;vector-effect:none;fill:#f5f6e8;fill-opacity:1;fill-rule:nonzero;stroke:none;stroke-width:1.60874;stroke-linecap:round;stroke-linejoin:round;stroke-miterlimit:4;stroke-dasharray:none;stroke-dashoffset:0;stroke-opacity:1;color-rendering:auto;image-rendering:auto;shape-rendering:auto;text-rendering:auto;enable-background:accumulate;stop-color:#000000;stop-opacity:1"
         d="m 38.998047,14.935547 v 19.998047 h 2 V 14.935547 Z"
         transform="matrix(0.26458333,0,0,0.26458333,0,284.3)" />
      <path
         id="path1101"
         style="color:#000000;font-style:normal;font-variant:normal;font-weight:normal;font-stretch:normal;font-size:medium;line-height:normal;font-family:sans-serif;font-variant-ligatures:normal;font-variant-position:normal;font-variant-caps:normal;font-variant-numeric:normal;font-variant-alternates:normal;font-variant-east-asian:normal;font-feature-settings:normal;font-variation-settings:normal;text-indent:0;text-align:start;text-decoration:none;text-decoration-line:none;text-decoration-style:solid;text-decoration-color:#000000;letter-spacing:normal;word-spacing:normal;text-transform:none;writing-mode:lr-tb;direction:ltr;text-orientation:mixed;dominant-baseline:auto;baseline-shift:baseline;text-anchor:start;white-space:normal;shape-padding:0;shape-margin:0;inline-size:0;clip-rule:nonzero;display:inline;overflow:visible;visibility:visible;opacity:1;isolation:auto;mix-blend-mode:normal;color-interpolation:sRGB;color-interpolation-filters:linearRGB;solid-color:#000000;solid-opacity:1;vector-effect:none;fill:#f5f6e8;fill-opacity:1;fill-rule:nonzero;stroke:none;stroke-width:1.60874;stroke-linecap:round;stroke-linejoin:round;stroke-miterlimit:4;stroke-dasharray:none;stroke-dashoffset:0;stroke-opacity:1;color-rendering:auto;image-rendering:auto;shape-rendering:auto;text-rendering:auto;enable-background:accumulate;stop-color:#000000;stop-opacity:1"
         d="m 1.8808594,23.935547 0.2226562,2 H 45.894531 l 0.220703,-2 z"
         transform="matrix(0.26458333,0,0,0.26458333,0,284.3)" />
      <path
         style="color:#000000;font-style:normal;font-variant:normal;font-weight:normal;font-stretch:normal;font-size:medium;line-height:normal;font-family:sans-serif;font-variant-ligatures:normal;font-variant-position:normal;font-variant-caps:normal;font-variant-numeric:normal;font-variant-alternates:normal;font-variant-east-asian:normal;font-feature-settings:normal;font-variation-settings:normal;text-indent:0;text-align:start;text-decoration:none;text-decoration-line:none;text-decoration-style:solid;text-decoration-color:#000000;letter-spacing:normal;word-spacing:normal;text-transform:none;writing-mode:lr-tb;direction:ltr;text-orientation:mixed;dominant-baseline:auto;baseline-shift:baseline;text-anchor:start;white-space:normal;shape-padding:0;shape-margin:0;inline-size:0;clip-rule:nonzero;display:inline;overflow:visible;visibility:visible;isolation:auto;mix-blend-mode:normal;color-interpolation:sRGB;color-interpolation-filters:linearRGB;solid-color:#000000;solid-opacity:1;vector-effect:none;fill:#fbbe40;fill-opacity:1;fill-rule:nonzero;stroke:none;stroke-width:0.425645;stroke-linecap:round;stroke-linejoin:round;stroke-miterlimit:4;stroke-dasharray:none;stroke-dashoffset:0;stroke-opacity:1;color-rendering:auto;image-rendering:auto;shape-rendering:auto;text-rendering:auto;enable-background:accumulate;stop-color:#000000"
         d="m 6.3496094,286.60547 c -0.5226042,0 -0.9511829,0.42857 -0.9511719,0.95117 1.18e-5,0.52259 0.4285834,0.95117 0.9511719,0.95117 0.5225885,0 0.9531132,-0.42858 0.953125,-0.95117 1.1e-5,-0.5226 -0.4305207,-0.95117 -0.953125,-0.95117 z"
         id="path1179" />
      <path
         style="color:#000000;font-style:normal;font-variant:normal;font-weight:normal;font-stretch:normal;font-size:medium;line-height:normal;font-family:sans-serif;font-variant-ligatures:normal;font-variant-position:normal;font-variant-caps:normal;font-variant-numeric:normal;font-variant-alternates:normal;font-variant-east-asian:normal;font-feature-settings:normal;font-variation-settings:normal;text-indent:0;text-align:start;text-decoration:none;text-decoration-line:none;text-decoration-style:solid;text-decoration-color:#000000;letter-spacing:normal;word-spacing:normal;text-transform:none;writing-mode:lr-tb;direction:ltr;text-orientation:mixed;dominant-baseline:auto;baseline-shift:baseline;text-anchor:start;white-space:normal;shape-padding:0;shape-margin:0;inline-size:0;clip-rule:nonzero;display:inline;overflow:visible;visibility:visible;opacity:1;isolation:auto;mix-blend-mode:normal;color-interpolation:sRGB;color-interpolation-filters:linearRGB;solid-color:#000000;solid-opacity:1;vector-effect:none;fill:#fbbe40;fill-opacity:1;fill-rule:nonzero;stroke:none;stroke-width:0.425645;stroke-linecap:round;stroke-linejoin:round;stroke-miterlimit:4;stroke-dasharray:none;stroke-dashoffset:0;stroke-opacity:1;color-rendering:auto;image-rendering:auto;shape-rendering:auto;text-rendering:auto;enable-background:accumulate;stop-color:#000000;stop-opacity:1"
         d="m 6.3496094,289.04492 a 0.2645835,0.2645835 0 0 0 -0.2636719,0.26367 v 0.5293 a 0.2645835,0.2645835 0 0 0 0.2636719,0.26563 0.2645835,0.2645835 0 0 0 0.265625,-0.26563 v -0.5293 a 0.2645835,0.2645835 0 0 0 -0.265625,-0.26367 z"
         id="path1184" />
      <path
         style="color:#000000;font-style:normal;font-variant:normal;font-weight:normal;font-stretch:normal;font-size:medium;line-height:normal;font-family:sans-serif;font-variant-ligatures:normal;font-variant-position:normal;font-variant-caps:normal;font-variant-numeric:normal;font-variant-alternates:normal;font-variant-east-asian:normal;font-feature-settings:normal;font-variation-settings:normal;text-indent:0;text-align:start;text-decoration:none;text-decoration-line:none;text-decoration-style:solid;text-decoration-color:#000000;letter-spacing:normal;word-spacing:normal;text-transform:none;writing-mode:lr-tb;direction:ltr;text-orientation:mixed;dominant-baseline:auto;baseline-shift:baseline;text-anchor:start;white-space:normal;shape-padding:0;shape-margin:0;inline-size:0;clip-rule:nonzero;display:inline;overflow:visible;visibility:visible;opacity:1;isolation:auto;mix-blend-mode:normal;color-interpolation:sRGB;color-interpolation-filters:linearRGB;solid-color:#000000;solid-opacity:1;vector-effect:none;fill:#fbbe40;fill-opacity:1;fill-rule:nonzero;stroke:none;stroke-width:0.425645;stroke-linecap:round;stroke-linejoin:round;stroke-miterlimit:4;stroke-dasharray:none;stroke-dashoffset:0;stroke-opacity:1;color-rendering:auto;image-rendering:auto;shape-rendering:auto;text-rendering:auto;enable-background:accumulate;stop-color:#000000;stop-opacity:1"
         d="m 7.2929688,288.55078 a 0.2645835,0.2645835 0 0 0 -0.1484376,0.0352 0.2645835,0.2645835 0 0 0 -0.097656,0.36133 l 0.2636719,0.45898 a 0.2645835,0.2645835 0 0 0 0.3632812,0.0977 0.2645835,0.2645835 0 0 0 0.095703,-0.36133 l -0.2636718,-0.45899 a 0.2645835,0.2645835 0 0 0 -0.2128906,-0.13281 z"
         id="path1188" />
      <path
         style="color:#000000;font-style:normal;font-variant:normal;font-weight:normal;font-stretch:normal;font-size:medium;line-height:normal;font-family:sans-serif;font-variant-ligatures:normal;font-variant-position:normal;font-variant-caps:normal;font-variant-numeric:normal;font-variant-alternates:normal;font-variant-east-asian:normal;font-feature-settings:normal;font-variation-settings:normal;text-indent:0;text-align:start;text-decoration:none;text-decoration-line:none;text-decoration-style:solid;text-decoration-color:#000000;letter-spacing:normal;word-spacing:normal;text-transform:none;writing-mode:lr-tb;direction:ltr;text-orientation:mixed;dominant-baseline:auto;baseline-shift:baseline;text-anchor:start;white-space:normal;shape-padding:0;shape-margin:0;inline-size:0;clip-rule:nonzero;display:inline;overflow:visible;visibility:visible;opacity:1;isolation:auto;mix-blend-mode:normal;color-interpolation:sRGB;color-interpolation-filters:linearRGB;solid-color:#000000;solid-opacity:1;vector-effect:none;fill:#fbbe40;fill-opacity:1;fill-rule:nonzero;stroke:none;stroke-width:0.425645;stroke-linecap:round;stroke-linejoin:round;stroke-miterlimit:4;stroke-dasharray:none;stroke-dashoffset:0;stroke-opacity:1;color-rendering:auto;image-rendering:auto;shape-rendering:auto;text-rendering:auto;enable-background:accumulate;stop-color:#000000;stop-opacity:1"
         d="m 5.4707031,288.59375 a 0.2645835,0.2645835 0 0 0 -0.1796875,0.0762 l -0.3730468,0.375 a 0.2645835,0.2645835 0 0 0 0,0.375 0.2645835,0.2645835 0 0 0 0.3730468,0 l 0.375,-0.375 a 0.2645835,0.2645835 0 0 0 0,-0.375 0.2645835,0.2645835 0 0 0 -0.1953125,-0.0762 z"
         id="path1193" />
      <path
         style="color:#000000;font-style:normal;font-variant:normal;font-weight:normal;font-stretch:normal;font-size:medium;line-height:normal;font-family:sans-serif;font-variant-ligatures:normal;font-variant-position:normal;font-variant-caps:normal;font-variant-numeric:normal;font-variant-alternates:normal;font-variant-east-asian:normal;font-feature-settings:normal;font-variation-settings:normal;text-indent:0;text-align:start;text-decoration:none;text-decoration-line:none;text-decoration-style:solid;text-decoration-color:#000000;letter-spacing:normal;word-spacing:normal;text-transform:none;writing-mode:lr-tb;direction:ltr;text-orientation:mixed;dominant-baseline:auto;baseline-shift:baseline;text-anchor:start;white-space:normal;shape-padding:0;shape-margin:0;inline-size:0;clip-rule:nonzero;display:inline;overflow:visible;visibility:visible;opacity:1;isolation:auto;mix-blend-mode:normal;color-interpolation:sRGB;color-interpolation-filters:linearRGB;solid-color:#000000;solid-opacity:1;vector-effect:none;fill:#fbbe40;fill-opacity:1;fill-rule:nonzero;stroke:none;stroke-width:0.425645;stroke-linecap:round;stroke-linejoin:round;stroke-miterlimit:4;stroke-dasharray:none;stroke-dashoffset:0;stroke-opacity:1;color-rendering:auto;image-rendering:auto;shape-rendering:auto;text-rendering:auto;enable-background:accumulate;stop-color:#000000;stop-opacity:1"
         d="m 6.3496094,284.84766 a 0.2645835,0.2645835 0 0 0 -0.2636719,0.26367 v 0.52929 a 0.2645835,0.2645835 0 0 0 0.2636719,0.26368 0.2645835,0.2645835 0 0 0 0.265625,-0.26368 v -0.52929 a 0.2645835,0.2645835 0 0 0 -0.265625,-0.26367 z"
         id="path1198" />
      <path
         style="color:#000000;font-style:normal;font-variant:normal;font-weight:normal;font-stretch:normal;font-size:medium;line-height:normal;font-family:sans-serif;font-variant-ligatures:normal;font-variant-position:normal;font-variant-caps:normal;font-variant-numeric:normal;font-variant-alternates:normal;font-variant-east-asian:normal;font-feature-settings:normal;font-variation-settings:normal;text-indent:0;text-align:start;text-decoration:none;text-decoration-line:none;text-decoration-style:solid;text-decoration-color:#000000;letter-spacing:normal;word-spacing:normal;text-transform:none;writing-mode:lr-tb;direction:ltr;text-orientation:mixed;dominant-baseline:auto;baseline-shift:baseline;text-anchor:start;white-space:normal;shape-padding:0;shape-margin:0;inline-size:0;clip-rule:nonzero;display:inline;overflow:visible;visibility:visible;opacity:1;isolation:auto;mix-blend-mode:normal;color-interpolation:sRGB;color-interpolation-filters:linearRGB;solid-color:#000000;solid-opacity:1;vector-effect:none;fill:#fbbe40;fill-opacity:1;fill-rule:nonzero;stroke:none;stroke-width:0.425645;stroke-linecap:round;stroke-linejoin:round;stroke-miterlimit:4;stroke-dasharray:none;stroke-dashoffset:0;stroke-opacity:1;color-rendering:auto;image-rendering:auto;shape-rendering:auto;text-rendering:auto;enable-background:accumulate;stop-color:#000000;stop-opacity:1"
         d="m 7.7402344,285.50586 a 0.2645835,0.2645835 0 0 0 -0.2382813,0.13281 l -0.265625,0.45899 a 0.2645835,0.2645835 0 0 0 0.097656,0.36132 0.2645835,0.2645835 0 0 0 0.3613281,-0.0976 l 0.265625,-0.45703 a 0.2645835,0.2645835 0 0 0 -0.097656,-0.36133 0.2645835,0.2645835 0 0 0 -0.1230468,-0.0371 z"
         id="path1202" />
      <path
         style="color:#000000;font-style:normal;font-variant:normal;font-weight:normal;font-stretch:normal;font-size:medium;line-height:normal;font-family:sans-serif;font-variant-ligatures:normal;font-variant-position:normal;font-variant-caps:normal;font-variant-numeric:normal;font-variant-alternates:normal;font-variant-east-asian:normal;font-feature-settings:normal;font-variation-settings:normal;text-indent:0;text-align:start;text-decoration:none;text-decoration-line:none;text-decoration-style:solid;text-decoration-color:#000000;letter-spacing:normal;word-spacing:normal;text-transform:none;writing-mode:lr-tb;direction:ltr;text-orientation:mixed;dominant-baseline:auto;baseline-shift:baseline;text-anchor:start;white-space:normal;shape-padding:0;shape-margin:0;inline-size:0;clip-rule:nonzero;display:inline;overflow:visible;visibility:visible;opacity:1;isolation:auto;mix-blend-mode:normal;color-interpolation:sRGB;color-interpolation-filters:linearRGB;solid-color:#000000;solid-opacity:1;vector-effect:none;fill:#fbbe40;fill-opacity:1;fill-rule:nonzero;stroke:none;stroke-width:0.425645;stroke-linecap:round;stroke-linejoin:round;stroke-miterlimit:4;stroke-dasharray:none;stroke-dashoffset:0;stroke-opacity:1;color-rendering:auto;image-rendering:auto;shape-rendering:auto;text-rendering:auto;enable-background:accumulate;stop-color:#000000;stop-opacity:1"
         d="m 4.90625,285.5957 a 0.2645835,0.2645835 0 0 0 -0.1796875,0.0781 0.2645835,0.2645835 0 0 0 0,0.375 l 0.375,0.37305 a 0.2645835,0.2645835 0 0 0 0.3730469,0 0.2645835,0.2645835 0 0 0 0,-0.37305 l -0.3730469,-0.375 A 0.2645835,0.2645835 0 0 0 4.90625,285.5957 Z"
         id="path1206" />
      <path
         style="color:#000000;font-style:normal;font-variant:normal;font-weight:normal;font-stretch:normal;font-size:medium;line-height:normal;font-family:sans-serif;font-variant-ligatures:normal;font-variant-position:normal;font-variant-caps:normal;font-variant-numeric:normal;font-variant-alternates:normal;font-variant-east-asian:normal;font-feature-settings:normal;font-variation-settings:normal;text-indent:0;text-align:start;text-decoration:none;text-decoration-line:none;text-decoration-style:solid;text-decoration-color:#000000;letter-spacing:normal;word-spacing:normal;text-transform:none;writing-mode:lr-tb;direction:ltr;text-orientation:mixed;dominant-baseline:auto;baseline-shift:baseline;text-anchor:start;white-space:normal;shape-padding:0;shape-margin:0;inline-size:0;clip-rule:nonzero;display:inline;overflow:visible;visibility:visible;opacity:1;isolation:auto;mix-blend-mode:normal;color-interpolation:sRGB;color-interpolation-filters:linearRGB;solid-color:#000000;solid-opacity:1;vector-effect:none;fill:#fbbe40;fill-opacity:1;fill-rule:nonzero;stroke:none;stroke-width:0.425645;stroke-linecap:round;stroke-linejoin:round;stroke-miterlimit:4;stroke-dasharray:none;stroke-dashoffset:0;stroke-opacity:1;color-rendering:auto;image-rendering:auto;shape-rendering:auto;text-rendering:auto;enable-background:accumulate;stop-color:#000000;stop-opacity:1"
         d="m 8.0566406,287.22852 a 0.2645835,0.2645835 0 0 0 -0.265625,0.26367 0.2645835,0.2645835 0 0 0 0.265625,0.26562 h 0.5292969 a 0.2645835,0.2645835 0 0 0 0.2636719,-0.26562 0.2645835,0.2645835 0 0 0 -0.2636719,-0.26367 z"
         id="path1210" />
      <path
         style="color:#000000;font-style:normal;font-variant:normal;font-weight:normal;font-stretch:normal;font-size:medium;line-height:normal;font-family:sans-serif;font-variant-ligatures:normal;font-variant-position:normal;font-variant-caps:normal;font-variant-numeric:normal;font-variant-alternates:normal;font-variant-east-asian:normal;font-feature-settings:normal;font-variation-settings:normal;text-indent:0;text-align:start;text-decoration:none;text-decoration-line:none;text-decoration-style:solid;text-decoration-color:#000000;letter-spacing:normal;word-spacing:normal;text-transform:none;writing-mode:lr-tb;direction:ltr;text-orientation:mixed;dominant-baseline:auto;baseline-shift:baseline;text-anchor:start;white-space:normal;shape-padding:0;shape-margin:0;inline-size:0;clip-rule:nonzero;display:inline;overflow:visible;visibility:visible;opacity:1;isolation:auto;mix-blend-mode:normal;color-interpolation:sRGB;color-interpolation-filters:linearRGB;solid-color:#000000;solid-opacity:1;vector-effect:none;fill:#fbbe40;fill-opacity:1;fill-rule:nonzero;stroke:none;stroke-width:0.425645;stroke-linecap:round;stroke-linejoin:round;stroke-miterlimit:4;stroke-dasharray:none;stroke-dashoffset:0;stroke-opacity:1;color-rendering:auto;image-rendering:auto;shape-rendering:auto;text-rendering:auto;enable-background:accumulate;stop-color:#000000;stop-opacity:1"
         d="m 4.1855469,287.22852 a 0.2645835,0.2645835 0 0 0 -0.2636719,0.26367 0.2645835,0.2645835 0 0 0 0.2636719,0.26562 h 0.5292969 a 0.2645835,0.2645835 0 0 0 0.265625,-0.26562 0.2645835,0.2645835 0 0 0 -0.265625,-0.26367 z"
         id="path1214" />
      <path
         id="path1251"
         style="fill:#f4a82f;fill-opacity:1;stroke:none;stroke-width:0.425645;stroke-linecap:round;stroke-linejoin:round;stroke-opacity:1"
         d="m 6.3494832,286.60529 c -0.4387051,0 -0.8074345,0.30391 -0.9157065,0.71003 0.3083258,0.15141 0.7659195,-0.049 1.0846885,0.26975 0.2333281,0.23333 0.1714584,0.56939 0.1850016,0.85267 0.34944,-0.14138 0.5994377,-0.48343 0.5994464,-0.88109 1.11e-5,-0.5226 -0.4308258,-0.95136 -0.95343,-0.95136 z" />
      <path
         id="path1274"
         style="color:#000000;font-style:normal;font-variant:normal;font-weight:normal;font-stretch:normal;font-size:medium;line-height:normal;font-family:sans-serif;font-variant-ligatures:normal;font-variant-position:normal;font-variant-caps:normal;font-variant-numeric:normal;font-variant-alternates:normal;font-variant-east-asian:normal;font-feature-settings:normal;font-variation-settings:normal;text-indent:0;text-align:start;text-decoration:none;text-decoration-line:none;text-decoration-style:solid;text-decoration-color:#000000;letter-spacing:normal;word-spacing:normal;text-transform:none;writing-mode:lr-tb;direction:ltr;text-orientation:mixed;dominant-baseline:auto;baseline-shift:baseline;text-anchor:start;white-space:normal;shape-padding:0;shape-margin:0;inline-size:0;clip-rule:nonzero;display:inline;overflow:visible;visibility:visible;isolation:auto;mix-blend-mode:normal;color-interpolation:sRGB;color-interpolation-filters:linearRGB;solid-color:#000000;solid-opacity:1;vector-effect:none;fill:#102934;fill-opacity:1;fill-rule:nonzero;stroke:none;stroke-width:1.60874;stroke-linecap:round;stroke-linejoin:round;stroke-miterlimit:4;stroke-dasharray:none;stroke-dashoffset:0;stroke-opacity:1;color-rendering:auto;image-rendering:auto;shape-rendering:auto;text-rendering:auto;enable-background:accumulate;stop-color:#000000"
         d="m 28,34.947266 -8.001953,0.03711 v 2 L 28,36.947266 Z"
         transform="matrix(0.26458333,0,0,0.26458333,0,284.3)" />
    </g>
    <path
       sodipodi:nodetypes="cccscccccccccccccccccccsssssssssscsccccccccccccsccsccsccccccccccsccsccsccccccccccccccccccccscccccccccccccccccsccccscsccccccccccccccscccccccccccccccccccccccccscccccsccccccccccscc"
       d="m 8.4666479,281.31934 c -0.1806626,7.1e-4 -0.3269434,0.14698 -0.3276483,0.32765 v 0.65787 c 3.618e-4,0.18091 0.1467361,0.32758 0.3276483,0.32829 0.1819156,7.1e-4 0.329864,-0.14637 0.3302179,-0.32829 v -0.65787 c -7.235e-4,-0.18166 -0.1485523,-0.32836 -0.3302179,-0.32765 z m 1.7288261,0.81783 c -0.121669,-0.004 -0.2356041,0.0596 -0.2961679,0.16511 l -0.3302183,0.57113 c -0.090484,0.15754 -0.03612,0.35861 0.1214232,0.44908 0.1575366,0.0905 0.358597,0.0362 0.449071,-0.12146 l 0.330218,-0.56792 c 0.09092,-0.15768 0.03651,-0.35922 -0.121423,-0.44972 -0.04639,-0.0277 -0.09891,-0.0436 -0.152903,-0.0462 z m -3.5231821,0.11177 c -0.084286,0.002 -0.1643208,0.0377 -0.2235719,0.0977 -0.1288519,0.12853 -0.1288519,0.33725 0,0.46577 l 0.4664171,0.46386 c 0.1283023,0.12756 0.3355446,0.12756 0.4638469,0 0.1275692,-0.12831 0.1275692,-0.33556 0,-0.46386 l -0.4638469,-0.46577 c -0.063955,-0.0648 -0.1518738,-0.10008 -0.2428452,-0.0977 z m 1.794356,1.25534 c -0.6497078,0 -1.1821173,0.53304 -1.1821035,1.18274 1.45e-5,0.64969 0.5324151,1.18275 1.1821035,1.18275 0.6496883,0 1.1853014,-0.53306 1.1853156,-1.18275 1.38e-5,-0.6497 -0.5356077,-1.18274 -1.1853156,-1.18274 z m 0,0.65851 c 0.2941655,0 0.5268131,0.23007 0.5268069,0.52423 -6.6e-6,0.29416 -0.2326508,0.52424 -0.5268069,0.52424 -0.2941556,0 -0.5242307,-0.23008 -0.5242371,-0.52424 -6.4e-6,-0.29416 0.2300715,-0.52423 0.5242371,-0.52423 z m -2.6899282,0.11624 c -0.1809132,3.6e-4 -0.3275838,0.14673 -0.3282903,0.32765 -7.237e-4,0.1819 0.1463739,0.32986 0.3282903,0.33021 h 0.6578664 c 0.1826697,7.2e-4 0.330933,-0.14755 0.3302183,-0.33021 -7.237e-4,-0.18167 -0.1485529,-0.32837 -0.3302183,-0.32765 z m 4.8125753,0 c -0.181665,-7.4e-4 -0.32951,0.14598 -0.330218,0.32765 -7.24e-4,0.18266 0.147548,0.33093 0.330218,0.33021 h 0.657866 c 0.181665,-7.3e-4 0.328359,-0.14856 0.327648,-0.33021 -6.9e-4,-0.18067 -0.146985,-0.32696 -0.327648,-0.32765 z m -8.7000252,1.27204 c -0.5415524,0 -0.97336449,0.47939 -0.91356033,1.01763 l 0.51267313,4.61342 c 0.059567,0.53611 0.5193427,0.94697 1.0587536,0.94697 h 0.1651091 v 0.67971 c -3.5e-6,0.54111 0.4444124,0.98616 0.9855146,0.98616 h 3.4531554 v 1.29388 H 6.6575156 c -0.1816652,7.2e-4 -0.3283591,0.14855 -0.3276484,0.33022 3.619e-4,0.18092 0.1467362,0.32759 0.3276484,0.3283 H 10.27578 c 0.181916,7.2e-4 0.329864,-0.14638 0.330218,-0.3283 7.24e-4,-0.18267 -0.147548,-0.33093 -0.330218,-0.33022 H 9.7830229 v -1.29388 h 3.4525131 c 0.541103,0 0.988733,-0.44505 0.988729,-0.98616 v -0.67971 h 0.16511 c 0.539409,0 0.996612,-0.41086 1.056181,-0.94697 l 0.512031,-4.61342 c 0.05981,-0.53824 -0.368794,-1.01763 -0.910348,-1.01763 h -2.622471 c -0.180912,7e-4 -0.327297,0.14737 -0.327649,0.32829 6.91e-4,0.18066 0.146985,0.32694 0.327649,0.32765 h 0.975878 v 2.30446 h -1.974242 v -1.31638 c 7.24e-4,-0.18167 -0.145983,-0.32951 -0.327648,-0.33022 -0.18267,-7.2e-4 -0.330933,0.14755 -0.330218,0.33022 v 1.31638 c -1.5431328,-0.009 -3.0622658,0 -4.6037798,0 v -1.31638 c 7.237e-4,-0.18267 -0.1475482,-0.33093 -0.3302179,-0.33022 -0.1816651,7.2e-4 -0.3283591,0.14855 -0.3276483,0.33022 v 1.31638 H 3.5326509 v -2.30446 h 0.9932236 c 0.1806626,-6.8e-4 0.3269441,-0.14699 0.3276484,-0.32765 -3.619e-4,-0.18092 -0.1467362,-0.32758 -0.3276484,-0.32829 z m 7.7228622,0.37133 c -0.055143,0.001 -0.1090483,0.0167 -0.1567575,0.0444 -0.1575418,0.0905 -0.2119059,0.29153 -0.121422,0.44906 l 0.327648,0.5705 c 0.090537,0.15909 0.293533,0.21367 0.4516405,0.12146 0.15661,-0.0914 0.209769,-0.29221 0.118852,-0.44908 l -0.3276478,-0.57049 c -0.054861,-0.096 -0.1543118,-0.15807 -0.2646887,-0.1651 -0.0092,-5.9e-4 -0.018411,-8.2e-4 -0.027624,-6.6e-4 z m -2.2382875,0.054 c -0.083614,0.002 -0.1633285,0.0358 -0.2229292,0.0945 l -0.4638471,0.46642 c -0.1292818,0.1286 -0.1292818,0.33782 0,0.46642 0.1283024,0.12757 0.3355448,0.12757 0.4638471,0 l 0.4657743,-0.46642 c 0.1292819,-0.1286 0.1292819,-0.33782 0,-0.46642 -0.064498,-0.0635 -0.152348,-0.0977 -0.2428451,-0.0945 z m -5.4845747,0.23064 h 0.9855148 v 2.30446 H 1.8539353 l -0.2248567,-2.01536 c -0.017706,-0.15936 0.099862,-0.2891 0.2601912,-0.2891 z m 12.1692442,0 h 0.988725 c 0.160329,0 0.274685,0.12974 0.256979,0.2891 l -0.22357,2.01536 h -1.022134 z m -5.5918661,0.33021 c -0.1806626,7e-4 -0.3269441,0.14698 -0.3276483,0.32765 v 0.65787 c -7.236e-4,0.18166 0.1459832,0.32951 0.3276483,0.33022 0.1826698,7.2e-4 0.3309328,-0.14756 0.3302179,-0.33022 v -0.65787 c -7.235e-4,-0.1817 -0.1485523,-0.3284 -0.3302179,-0.32769 z m -6.5394736,2.63212 h 0.9476103 v 2.30188 H 2.5471362 c -0.2096335,0 -0.3803067,-0.15335 -0.4034571,-0.3617 z m 1.6054766,0 H 5.506892 v 2.30188 H 3.5326509 Z m 2.6321073,0 h 1.9742414 v 2.30188 H 6.1647582 Z m 2.6321076,0 h 1.9716722 v 2.30188 H 8.7968658 Z m 2.6295382,0 h 1.974242 v 2.30188 h -1.974242 z m 2.63211,0 h 0.948895 l -0.215221,1.94018 c -0.02315,0.20835 -0.193179,0.3617 -0.402813,0.3617 h -0.330861 z m -10.6909722,2.95975 h 3.7833735 v 1.00799 H 3.6977599 c -0.1855602,0 -0.3302194,-0.14272 -0.3302181,-0.32828 z m 4.4412399,0 h 1.3157329 v 2.95975 H 7.8087817 Z m 1.9742412,0 h 3.7827321 v 0.67971 c 2e-6,0.18556 -0.144657,0.32828 -0.330219,0.32828 H 9.7830229 Z"
       style="color:#000000;font-style:normal;font-variant:normal;font-weight:normal;font-stretch:normal;font-size:medium;line-height:normal;font-family:sans-serif;font-variant-ligatures:normal;font-variant-position:normal;font-variant-caps:normal;font-variant-numeric:normal;font-variant-alternates:normal;font-variant-east-asian:normal;font-feature-settings:normal;font-variation-settings:normal;text-indent:0;text-align:start;text-decoration:none;text-decoration-line:none;text-decoration-style:solid;text-decoration-color:#000000;letter-spacing:normal;word-spacing:normal;text-transform:none;writing-mode:lr-tb;direction:ltr;text-orientation:mixed;dominant-baseline:auto;baseline-shift:baseline;text-anchor:start;white-space:normal;shape-padding:0;shape-margin:0;inline-size:0;clip-rule:nonzero;display:inline;overflow:visible;visibility:visible;opacity:1;isolation:auto;mix-blend-mode:normal;color-interpolation:sRGB;color-interpolation-filters:linearRGB;solid-color:#000000;solid-opacity:1;vector-effect:none;fill:#000000;fill-opacity:1;fill-rule:nonzero;stroke:none;stroke-width:0.529167;stroke-linecap:round;stroke-linejoin:round;stroke-miterlimit:4;stroke-dasharray:none;stroke-dashoffset:0;stroke-opacity:1;color-rendering:auto;image-rendering:auto;shape-rendering:auto;text-rendering:auto;enable-background:accumulate;stop-color:#000000;stop-opacity:1"
       id="path1660" />
  </g>
</svg>
