<?xml version="1.0" ?><svg viewBox="0 0 512 512" xmlns="http://www.w3.org/2000/svg"><defs><style>.cls-1{fill:#dfdfdf;}.cls-2{fill:#bebebe;}.cls-3{fill:#a2a2a2;}.cls-4{fill:#338dbf;}.cls-5{fill:#cbe2ef;}.cls-6{fill:#2c78a3;}.cls-7{fill:#93a5ae;}.cls-8{fill:#31c292;}.cls-9{fill:#bdecdc;}.cls-10{fill:#2aa57d;}</style></defs><title/><g data-name="/ FLAT" id="_FLAT"><path class="cls-1" d="M72,184H440a16,16,0,0,1,16,16V464a0,0,0,0,1,0,0H56a0,0,0,0,1,0,0V200a16,16,0,0,1,16-16Z"/><path class="cls-2" d="M302.58264,464H456V319.86646A305.14521,305.14521,0,0,1,302.58264,464Z"/><path class="cls-2" d="M472,488H40a16,16,0,0,1-16-16V440H201.37258a16,16,0,0,1,11.31371,4.68629l6.62742,6.62742A16,16,0,0,0,230.62742,456h50.74516a16,16,0,0,0,11.31371-4.68629l6.62742-6.62742A16,16,0,0,1,310.62741,440H488v32A16,16,0,0,1,472,488Z"/><path class="cls-3" d="M184.00031,488H472a16,16,0,0,0,16-16V440H348.01648A302.574,302.574,0,0,1,184.00031,488Z"/><rect class="cls-4" height="368" rx="16" width="272" x="120" y="24"/><rect class="cls-5" height="304" width="208" x="152" y="56"/><path class="cls-6" d="M132.86755,391.689A16.06818,16.06818,0,0,0,136,392H376a16,16,0,0,0,16-16V120.00024C392,265.90723,277.11292,384.96973,132.86755,391.689Z"/><path class="cls-7" d="M360,360V248.07526A273.20418,273.20418,0,0,1,248.05475,360Z"/><rect class="cls-8" height="224" rx="16" width="128" x="192" y="96"/><path class="cls-9" d="M224,96l4.97015,19.88055A16,16,0,0,0,244.49243,128h23.01514a16,16,0,0,0,15.52228-12.11945L288,96Z"/><path class="cls-10" d="M203.88483,319.44592A15.973,15.973,0,0,0,208,320h96a16,16,0,0,0,16-16V192.00012A128.00745,128.00745,0,0,1,203.88483,319.44592Z"/></g></svg>