<?xml version="1.0" encoding="UTF-8" standalone="no"?>
<!-- Created with Inkscape (http://www.inkscape.org/) -->

<svg
   width="64pt"
   height="64pt"
   viewBox="0 0 22.577778 22.577778"
   version="1.1"
   id="svg831"
   inkscape:version="1.1.2 (0a00cf5339, 2022-02-04)"
   sodipodi:docname="27 - Smartphone And Gadget.svg"
   inkscape:export-filename="/media/taufikramadhan/Data/Tr Design Studio/Project Design/TR Creative Design/Icon Design/Project Hiring/Icon Icons/023 - Electronic Devices And Hardware/5 - Send/3 - Flat/7 - Smartphone And Gadget.png"
   inkscape:export-xdpi="576"
   inkscape:export-ydpi="576"
   xmlns:inkscape="http://www.inkscape.org/namespaces/inkscape"
   xmlns:sodipodi="http://sodipodi.sourceforge.net/DTD/sodipodi-0.dtd"
   xmlns="http://www.w3.org/2000/svg"
   xmlns:svg="http://www.w3.org/2000/svg"
   xmlns:rdf="http://www.w3.org/1999/02/22-rdf-syntax-ns#"
   xmlns:cc="http://creativecommons.org/ns#"
   xmlns:dc="http://purl.org/dc/elements/1.1/">
  <defs
     id="defs825">
    <pattern
       id="EMFhbasepattern"
       patternUnits="userSpaceOnUse"
       width="6"
       height="6"
       x="0"
       y="0" />
    <pattern
       id="EMFhbasepattern-9"
       patternUnits="userSpaceOnUse"
       width="6"
       height="6"
       x="0"
       y="0" />
    <pattern
       id="EMFhbasepattern-0"
       patternUnits="userSpaceOnUse"
       width="6"
       height="6"
       x="0"
       y="0" />
    <pattern
       id="EMFhbasepattern-7"
       patternUnits="userSpaceOnUse"
       width="6"
       height="6"
       x="0"
       y="0" />
    <pattern
       id="EMFhbasepattern-2"
       patternUnits="userSpaceOnUse"
       width="6"
       height="6"
       x="0"
       y="0" />
    <pattern
       id="EMFhbasepattern-98"
       patternUnits="userSpaceOnUse"
       width="6"
       height="6"
       x="0"
       y="0" />
    <pattern
       id="EMFhbasepattern-6"
       patternUnits="userSpaceOnUse"
       width="6"
       height="6"
       x="0"
       y="0" />
    <pattern
       id="EMFhbasepattern-01"
       patternUnits="userSpaceOnUse"
       width="6"
       height="6"
       x="0"
       y="0" />
    <pattern
       id="EMFhbasepattern-07"
       patternUnits="userSpaceOnUse"
       width="6"
       height="6"
       x="0"
       y="0" />
    <pattern
       id="EMFhbasepattern-8"
       patternUnits="userSpaceOnUse"
       width="6"
       height="6"
       x="0"
       y="0" />
    <pattern
       id="EMFhbasepattern-4"
       patternUnits="userSpaceOnUse"
       width="6"
       height="6"
       x="0"
       y="0" />
    <pattern
       id="EMFhbasepattern-40"
       patternUnits="userSpaceOnUse"
       width="6"
       height="6"
       x="0"
       y="0" />
    <pattern
       id="EMFhbasepattern-08"
       patternUnits="userSpaceOnUse"
       width="6"
       height="6"
       x="0"
       y="0" />
    <pattern
       id="EMFhbasepattern-04"
       patternUnits="userSpaceOnUse"
       width="6"
       height="6"
       x="0"
       y="0" />
    <pattern
       id="EMFhbasepattern-014"
       patternUnits="userSpaceOnUse"
       width="6"
       height="6"
       x="0"
       y="0" />
    <pattern
       id="EMFhbasepattern-27"
       patternUnits="userSpaceOnUse"
       width="6"
       height="6"
       x="0"
       y="0" />
    <pattern
       id="EMFhbasepattern-09"
       patternUnits="userSpaceOnUse"
       width="6"
       height="6"
       x="0"
       y="0" />
    <pattern
       id="EMFhbasepattern-5"
       patternUnits="userSpaceOnUse"
       width="6"
       height="6"
       x="0"
       y="0" />
    <pattern
       id="EMFhbasepattern-018"
       patternUnits="userSpaceOnUse"
       width="6"
       height="6"
       x="0"
       y="0" />
  </defs>
  <sodipodi:namedview
     id="base"
     pagecolor="#ffffff"
     bordercolor="#666666"
     borderopacity="1.0"
     inkscape:pageopacity="0.0"
     inkscape:pageshadow="2"
     inkscape:zoom="2.4776359"
     inkscape:cx="49.644098"
     inkscape:cy="30.068986"
     inkscape:document-units="pt"
     inkscape:current-layer="layer1"
     showgrid="false"
     units="pt"
     inkscape:window-width="1366"
     inkscape:window-height="719"
     inkscape:window-x="0"
     inkscape:window-y="26"
     inkscape:window-maximized="1"
     inkscape:pagecheckerboard="true"
     inkscape:showpageshadow="false"
     inkscape:object-paths="true"
     inkscape:snap-intersection-paths="true"
     inkscape:snap-smooth-nodes="true"
     inkscape:snap-midpoints="true"
     showguides="true"
     inkscape:snap-bbox="true"
     inkscape:bbox-nodes="true"
     inkscape:snap-nodes="false"
     inkscape:snap-global="true"
     inkscape:snap-others="false">
    <inkscape:grid
       type="xygrid"
       id="grid1378" />
    <sodipodi:guide
       position="0.97013831,21.607643"
       orientation="78.000048,0"
       id="guide1380"
       inkscape:locked="false" />
    <sodipodi:guide
       position="0.97013831,0.97013129"
       orientation="0,78.000005"
       id="guide1382"
       inkscape:locked="false" />
    <sodipodi:guide
       position="21.607639,0.97013129"
       orientation="-78.000048,0"
       id="guide1384"
       inkscape:locked="false" />
    <sodipodi:guide
       position="21.607639,21.607643"
       orientation="0,-78.000005"
       id="guide1386"
       inkscape:locked="false" />
  </sodipodi:namedview>
  <metadata
     id="metadata828">
    <rdf:RDF>
      <cc:Work
         rdf:about="">
        <dc:format>image/svg+xml</dc:format>
        <dc:type
           rdf:resource="http://purl.org/dc/dcmitype/StillImage" />
      </cc:Work>
    </rdf:RDF>
  </metadata>
  <g
     inkscape:label="Icon"
     inkscape:groupmode="layer"
     id="layer1"
     transform="translate(0,-274.42223)">
    <g
       id="g53646"
       style="display:inline;stroke-width:0.794878"
       transform="matrix(1.2580549,0,0,1.2580549,0.63824394,-192.40257)">
      <path
         style="color:#000000;fill:#3a4d5c;stroke-width:0.794878;stroke-linecap:round;stroke-linejoin:round;stroke-miterlimit:1.5;-inkscape-stroke:none"
         d="m 15.478516,375.54492 a 0.2645835,0.2645835 0 0 0 -0.265625,0.26367 l -0.01563,11.37696 c -4.52e-4,0.29785 -0.221265,0.52929 -0.511719,0.52929 h -2.912109 c -0.295364,0 -0.529297,-0.23394 -0.529297,-0.52929 v -0.5293 a 0.2645835,0.2645835 0 0 0 -0.263672,-0.26367 0.2645835,0.2645835 0 0 0 -0.265625,0.26367 v 0.5293 c 0,0.58134 0.477246,1.05859 1.058594,1.05859 h 2.912109 c 0.580415,0 1.038194,-0.48557 1.039062,-1.05859 l 0.01758,-11.37696 a 0.2645835,0.2645835 0 0 0 -0.263672,-0.26367 z"
         id="path98374" />
      <path
         style="color:#000000;fill:#4f697d;stroke-width:0.794878;stroke-linecap:round;stroke-linejoin:round;stroke-miterlimit:1.5;-inkscape-stroke:none"
         d="m 2.2480469,371.83984 c -0.5813642,0 -1.0566406,0.47723 -1.0566407,1.0586 v 11.64062 c 0,0.58137 0.4752765,1.0586 1.0566407,1.0586 h 9.5253911 a 0.26460996,0.26460996 0 0 0 0.265625,-0.26368 v -12.43554 c 0,-0.58137 -0.47723,-1.0586 -1.058594,-1.0586 z"
         id="path248693" />
      <path
         id="path34733"
         style="color:#000000;fill:#3a4d5c;fill-opacity:1;stroke-width:0.794878;stroke-linecap:round;stroke-linejoin:round;stroke-miterlimit:1.5;-inkscape-stroke:none"
         d="m 12.039059,380.04247 v -7.14426 c 0,-0.58137 -0.47697,-1.05834 -1.058334,-1.05834 h -0.529166 c 0.581364,0 1.058333,0.47697 1.058333,1.05834 v 7.14426 z"
         sodipodi:nodetypes="csscscc" />
      <path
         id="path31789"
         style="color:#000000;fill:#3a4d5c;fill-opacity:1;stroke-width:0.794878;stroke-linecap:round;stroke-linejoin:round;stroke-miterlimit:1.5;-inkscape-stroke:none"
         d="m 1.1916584,384.00967 v 0.52917 c 0,0.58137 0.4749022,1.05885 1.0562664,1.05885 h 9.5255172 a 0.26460996,0.26460996 0 0 0 0.265617,-0.26355 v -0.52917 a 0.26460996,0.26460996 0 0 1 -0.265617,0.26355 H 2.2479248 c -0.5813642,0 -1.0562664,-0.47748 -1.0562664,-1.05885 z" />
      <path
         id="path10534"
         style="color:#000000;fill:#3a4d5c;fill-opacity:1;stroke-width:3.00426;stroke-linecap:round;stroke-linejoin:round;stroke-miterlimit:1.5;-inkscape-stroke:none"
         d="m 34.599609,362.85547 c -3.344299,0 -6.097656,2.75334 -6.097656,6.09765 v 25.80665 c 0,1.5706 0.607154,3.01176 1.597656,4.09765 h 14.398438 a 1.0001006,1.0001006 0 0 0 1.003906,-0.99609 v -35.00586 z"
         transform="matrix(0.26458334,0,0,0.26458334,0,280.06666)" />
      <path
         style="color:#000000;fill:#e2f0fa;stroke-width:0.794878;stroke-linecap:round;stroke-linejoin:round;stroke-miterlimit:1.5;-inkscape-stroke:none"
         d="m 2.5136719,373.42773 a 0.26460996,0.26460996 0 0 0 -0.265625,0.26368 v 10.58398 a 0.26460996,0.26460996 0 0 0 0.265625,0.26367 h 8.2011721 a 0.26460996,0.26460996 0 0 0 0.265625,-0.26367 v -10.58398 a 0.26460996,0.26460996 0 0 0 -0.265625,-0.26368 z"
         id="path248699" />
      <path
         style="color:#000000;fill:#3a4d5c;fill-opacity:1;stroke-width:0.794878;stroke-linecap:round;stroke-linejoin:round;stroke-miterlimit:1.5;-inkscape-stroke:none"
         d="m 4.3656237,372.63359 a 0.2645835,0.2645835 0 0 0 -0.265625,0.26367 0.2645835,0.2645835 0 0 0 0.265625,0.26563 0.2645835,0.2645835 0 0 0 0.2636719,-0.26563 0.2645835,0.2645835 0 0 0 -0.2636719,-0.26367 z"
         id="path67569" />
      <path
         style="color:#000000;fill:#3a4d5c;stroke-width:0.794878;stroke-linecap:round;stroke-linejoin:round;stroke-miterlimit:1.5;-inkscape-stroke:none"
         d="m 5.4238281,372.63281 a 0.2645835,0.2645835 0 0 0 -0.2636719,0.26563 0.2645835,0.2645835 0 0 0 0.2636719,0.26367 h 2.3808594 a 0.2645835,0.2645835 0 0 0 0.265625,-0.26367 0.2645835,0.2645835 0 0 0 -0.265625,-0.26563 z"
         id="path68804" />
      <path
         style="color:#000000;fill:#9ebed1;stroke-width:0.794878;stroke-linecap:round;stroke-linejoin:round;stroke-miterlimit:1.5;-inkscape-stroke:none"
         d="m 3.5722656,381.36523 a 0.2645835,0.2645835 0 0 0 -0.265625,0.26368 0.2645835,0.2645835 0 0 0 0.265625,0.26562 h 4.7617188 a 0.2645835,0.2645835 0 0 0 0.265625,-0.26562 0.2645835,0.2645835 0 0 0 -0.265625,-0.26368 z"
         id="path71425" />
      <path
         style="color:#000000;fill:#fda35d;stroke-width:0.794878;stroke-linecap:round;stroke-linejoin:round;stroke-miterlimit:1.5;-inkscape-stroke:none"
         d="m 3.8359375,382.1582 c -0.2885765,0 -0.5292969,0.24072 -0.5292969,0.5293 v 0.5293 c 0,0.28858 0.2407204,0.52929 0.5292969,0.52929 h 0.5292969 c 0.2885765,0 0.5292968,-0.24071 0.5292968,-0.52929 v -0.5293 c 0,-0.28858 -0.2407203,-0.5293 -0.5292968,-0.5293 z"
         id="path248623" />
      <path
         style="color:#000000;fill:#fda35d;stroke-width:0.794878;stroke-linecap:round;stroke-linejoin:round;stroke-miterlimit:1.5;-inkscape-stroke:none"
         d="m 6.3496094,382.1582 c -0.2885765,0 -0.5292969,0.24072 -0.5292969,0.5293 v 0.5293 c 0,0.28858 0.2407204,0.52929 0.5292969,0.52929 h 0.5292968 c 0.2885765,0 0.5292969,-0.24071 0.5292969,-0.52929 v -0.5293 c 0,-0.28858 -0.2407204,-0.5293 -0.5292969,-0.5293 z"
         id="path248629" />
      <path
         style="color:#000000;fill:#4895ef;stroke-width:0.794878;stroke-linecap:round;stroke-linejoin:round;stroke-miterlimit:1.5;-inkscape-stroke:none"
         d="m 3.8359375,374.48633 c -0.2885885,0 -0.5292969,0.24072 -0.5292969,0.52929 v 0.5293 c 0,0.28858 0.2407204,0.52735 0.5292969,0.52735 h 0.5292969 c 0.2885765,0 0.5292968,-0.23877 0.5292968,-0.52735 v -0.5293 c 0,-0.28857 -0.2407083,-0.52929 -0.5292968,-0.52929 z"
         id="path248635" />
      <path
         style="color:#000000;fill:#4895ef;stroke-width:0.794878;stroke-linecap:round;stroke-linejoin:round;stroke-miterlimit:1.5;-inkscape-stroke:none"
         d="m 6.3496094,374.48633 c -0.2885885,0 -0.5292969,0.24072 -0.5292969,0.52929 v 0.5293 c 0,0.28858 0.2407204,0.52735 0.5292969,0.52735 h 0.5292968 c 0.2885765,0 0.5292969,-0.23877 0.5292969,-0.52735 v -0.5293 c 0,-0.28857 -0.2407083,-0.52929 -0.5292969,-0.52929 z"
         id="path248641" />
      <path
         style="color:#000000;fill:#4895ef;stroke-width:0.794878;stroke-linecap:round;stroke-linejoin:round;stroke-miterlimit:1.5;-inkscape-stroke:none"
         d="m 8.8632813,374.48633 c -0.2885886,0 -0.5292969,0.24072 -0.5292969,0.52929 v 0.5293 c 0,0.28858 0.2407204,0.52735 0.5292969,0.52735 h 0.5292968 c 0.2885765,0 0.5292969,-0.23877 0.5292969,-0.52735 v -0.5293 c 0,-0.28857 -0.2407084,-0.52929 -0.5292969,-0.52929 z"
         id="path248647" />
      <path
         style="color:#000000;fill:#4895ef;stroke-width:0.794878;stroke-linecap:round;stroke-linejoin:round;stroke-miterlimit:1.5;-inkscape-stroke:none"
         d="m 3.8359375,376.60156 c -0.2885765,0 -0.5292969,0.24072 -0.5292969,0.5293 v 0.5293 c 0,0.28858 0.2407084,0.52929 0.5292969,0.52929 h 0.5292969 c 0.2885885,0 0.5292968,-0.24071 0.5292968,-0.52929 v -0.5293 c 0,-0.28858 -0.2407203,-0.5293 -0.5292968,-0.5293 z"
         id="path248653" />
      <path
         style="color:#000000;fill:#4895ef;stroke-width:0.794878;stroke-linecap:round;stroke-linejoin:round;stroke-miterlimit:1.5;-inkscape-stroke:none"
         d="m 6.3496094,376.60156 c -0.2885765,0 -0.5292969,0.24072 -0.5292969,0.5293 v 0.5293 c 0,0.28858 0.2407084,0.52929 0.5292969,0.52929 h 0.5292968 c 0.2885886,0 0.5292969,-0.24071 0.5292969,-0.52929 v -0.5293 c 0,-0.28858 -0.2407204,-0.5293 -0.5292969,-0.5293 z"
         id="path248659" />
      <path
         style="color:#000000;fill:#4895ef;stroke-width:0.794878;stroke-linecap:round;stroke-linejoin:round;stroke-miterlimit:1.5;-inkscape-stroke:none"
         d="m 3.8359375,378.71875 c -0.2885765,0 -0.5292969,0.24072 -0.5292969,0.5293 v 0.52929 c 0,0.28858 0.2407084,0.5293 0.5292969,0.5293 h 0.5292969 c 0.2885885,0 0.5292968,-0.24072 0.5292968,-0.5293 v -0.52929 c 0,-0.28858 -0.2407203,-0.5293 -0.5292968,-0.5293 z"
         id="path248665" />
      <path
         style="color:#000000;fill:#4895ef;stroke-width:0.794878;stroke-linecap:round;stroke-linejoin:round;stroke-miterlimit:1.5;-inkscape-stroke:none"
         d="m 6.3496094,378.71875 c -0.2885765,0 -0.5292969,0.24072 -0.5292969,0.5293 v 0.52929 c 0,0.28858 0.2407084,0.5293 0.5292969,0.5293 h 0.5292968 c 0.2885886,0 0.5292969,-0.24072 0.5292969,-0.5293 v -0.52929 c 0,-0.28858 -0.2407204,-0.5293 -0.5292969,-0.5293 z"
         id="path248671" />
      <path
         style="color:#000000;fill:#e2f0fa;stroke-width:0.794878;stroke-linecap:round;stroke-linejoin:round;stroke-miterlimit:1.5;-inkscape-stroke:none"
         d="m 2.5136719,386.12695 a 0.26460996,0.26460996 0 0 0 -0.140625,0.041 l -1.0585938,0.66015 a 0.26460996,0.26460996 0 0 0 0,0.44922 l 1.0585938,0.66211 a 0.26460996,0.26460996 0 0 0 0.140625,0.0391 h 6.3496094 c 0.4352334,0 0.7949218,-0.35774 0.7949218,-0.79297 v -0.26368 c 0,-0.43523 -0.3596884,-0.79492 -0.7949218,-0.79492 z"
         id="path248715" />
      <path
         id="path24710"
         style="color:#000000;fill:#c8dae5;fill-opacity:1;stroke-width:0.794878;stroke-linecap:round;stroke-linejoin:round;stroke-miterlimit:1.5;-inkscape-stroke:none"
         d="m 9.0940188,386.16199 c 0.022601,0.0732 0.03514,0.15037 0.03514,0.23048 v 0.26407 c 0,0.43523 -0.360067,0.79272 -0.7953002,0.79272 H 1.5895671 l 0.7834147,0.4904 a 0.26460996,0.26460996 0 0 0 0.1405599,0.0388 h 6.3494835 c 0.4352332,0 0.7953002,-0.35748 0.7953002,-0.79271 v -0.26407 c 0,-0.3551 -0.2397578,-0.65944 -0.5643066,-0.75965 z" />
      <path
         style="color:#000000;fill:#4f697d;stroke-width:0.794878;stroke-linecap:round;stroke-linejoin:round;stroke-miterlimit:1.5;-inkscape-stroke:none"
         d="m 1.4550781,386.12695 a 0.2645835,0.2645835 0 0 0 -0.2636719,0.26563 v 1.32226 a 0.2645835,0.2645835 0 0 0 0.2636719,0.26368 0.2645835,0.2645835 0 0 0 0.265625,-0.26368 v -1.32226 a 0.2645835,0.2645835 0 0 0 -0.265625,-0.26563 z"
         id="path82340" />
      <path
         id="path84044"
         style="color:#000000;fill:#9ebed1;stroke-width:3.00426;stroke-linecap:round;stroke-linejoin:round;stroke-miterlimit:1.5;-inkscape-stroke:none"
         d="m 27.498047,400.85742 v 6.99805 h 2 v -6.99805 z"
         transform="matrix(0.26458334,0,0,0.26458334,0,280.06666)" />
      <path
         id="path84046"
         style="color:#000000;fill:#9ebed1;stroke-width:3.00426;stroke-linecap:round;stroke-linejoin:round;stroke-miterlimit:1.5;-inkscape-stroke:none"
         d="m 11.501953,400.85742 v 6.99805 h 2 v -6.99805 z"
         transform="matrix(0.26458334,0,0,0.26458334,0,280.06666)" />
      <path
         style="color:#000000;fill:#4f697d;stroke-width:0.794878;stroke-linecap:round;stroke-linejoin:round;stroke-miterlimit:1.5;-inkscape-stroke:none"
         d="m 10.185547,385.06836 a 0.26460996,0.26460996 0 0 0 -0.263672,0.26562 v 0.82227 c 0,0.419 0.34467,0.76563 0.763672,0.76562 h 0.587891 c 0.419001,0 0.765625,-0.34662 0.765625,-0.76562 v -0.82227 a 0.26460996,0.26460996 0 0 0 -0.265625,-0.26562 z"
         id="path248733" />
      <path
         id="path10413"
         style="fill:#c8dae5;fill-opacity:1;stroke-width:3.00426;stroke-linecap:round;stroke-linejoin:round;stroke-miterlimit:1.5"
         d="m 34.599609,362.85547 c -3.344299,0 -6.097656,2.75334 -6.097656,6.09765 v 25.80665 c 0,0.032 0.0015,0.0638 0.002,0.0957 H 40.496141 A 1.0001006,1.0001006 0 0 0 41.502,393.85938 v -31.00391 z"
         transform="matrix(0.26458334,0,0,0.26458334,0,280.06666)" />
      <path
         style="color:#000000;fill:#e2f0fa;stroke-width:0.794878;stroke-linecap:round;stroke-linejoin:round;stroke-miterlimit:1.5;-inkscape-stroke:none"
         d="m 9.1542969,376.60156 c -0.5959334,0 -1.0839844,0.48805 -1.0839844,1.08399 v 6.82812 c 0,0.59593 0.488051,1.08399 1.0839844,1.08399 h 3.6523441 c 0.595933,0 1.083984,-0.48806 1.083984,-1.08399 v -6.82812 c 0,-0.59594 -0.488051,-1.08399 -1.083984,-1.08399 z"
         id="path248677" />
      <path
         style="color:#000000;fill:#4f697d;stroke-width:0.794878;stroke-linecap:round;stroke-linejoin:round;stroke-miterlimit:1.5;-inkscape-stroke:none"
         d="m 9.1542969,376.60221 c -0.5959334,0 -1.0839844,0.48805 -1.0839844,1.08398 v 6.82813 c 0,0.59593 0.488051,1.08398 1.0839844,1.08398 h 3.6523441 c 0.595933,0 1.083984,-0.48805 1.083984,-1.08398 v -6.82813 c 0,-0.59593 -0.488051,-1.08398 -1.083984,-1.08398 z m 0,0.52929 h 3.6523441 c 0.311927,0 0.554687,0.24276 0.554687,0.55469 v 6.82813 c 0,0.31192 -0.24276,0.55468 -0.554687,0.55468 H 9.1542969 c -0.3119274,0 -0.5546875,-0.24276 -0.5546875,-0.55468 v -6.82813 c 0,-0.31193 0.2427601,-0.55469 0.5546875,-0.55469 z"
         id="rect89637" />
      <path
         style="color:#000000;fill:#9ebed1;stroke-width:0.794878;stroke-linecap:round;stroke-linejoin:round;stroke-miterlimit:1.5;-inkscape-stroke:none"
         d="m 9.1289063,377.66016 a 0.2645835,0.2645835 0 0 0 -0.265625,0.26562 0.2645835,0.2645835 0 0 0 0.265625,0.26367 h 3.7031247 a 0.2645835,0.2645835 0 0 0 0.265625,-0.26367 0.2645835,0.2645835 0 0 0 -0.265625,-0.26562 z"
         id="path90853" />
      <path
         style="color:#000000;fill:#9ebed1;stroke-width:0.794878;stroke-linecap:round;stroke-linejoin:round;stroke-miterlimit:1.5;-inkscape-stroke:none"
         d="m 9.8925781,381.89453 c -0.419002,0 -0.7636718,0.34467 -0.7636718,0.76367 v 0.0586 c 0,0.419 0.3446698,0.76562 0.7636718,0.76562 h 2.1757809 c 0.419003,0 0.763672,-0.34662 0.763672,-0.76562 v -0.0586 c 0,-0.419 -0.344669,-0.76367 -0.763672,-0.76367 z"
         id="path248683" />
      <path
         style="color:#000000;fill:#4895ef;stroke-width:0.794878;stroke-linecap:round;stroke-linejoin:round;stroke-miterlimit:1.5;-inkscape-stroke:none"
         d="m 9.3925781,379.77734 a 0.2645835,0.2645835 0 0 0 -0.2636718,0.26368 0.2645835,0.2645835 0 0 0 0.2636718,0.26562 h 0.265625 a 0.2645835,0.2645835 0 0 0 0.2636719,-0.26562 0.2645835,0.2645835 0 0 0 -0.2636719,-0.26368 z"
         id="path94427" />
      <path
         style="color:#000000;fill:#4895ef;stroke-width:0.794878;stroke-linecap:round;stroke-linejoin:round;stroke-miterlimit:1.5;-inkscape-stroke:none"
         d="m 9.3925781,380.83594 a 0.2645835,0.2645835 0 0 0 -0.2636718,0.26367 0.2645835,0.2645835 0 0 0 0.2636718,0.26562 h 0.265625 a 0.2645835,0.2645835 0 0 0 0.2636719,-0.26562 0.2645835,0.2645835 0 0 0 -0.2636719,-0.26367 z"
         id="path94509" />
      <path
         style="color:#000000;fill:#4895ef;stroke-width:0.794878;stroke-linecap:round;stroke-linejoin:round;stroke-miterlimit:1.5;-inkscape-stroke:none"
         d="m 12.302734,379.77734 a 0.2645835,0.2645835 0 0 0 -0.263671,0.26368 0.2645835,0.2645835 0 0 0 0.263671,0.26562 h 0.265625 a 0.2645835,0.2645835 0 0 0 0.263672,-0.26562 0.2645835,0.2645835 0 0 0 -0.263672,-0.26368 z"
         id="path94511" />
      <path
         style="color:#000000;fill:#4895ef;stroke-width:0.794878;stroke-linecap:round;stroke-linejoin:round;stroke-miterlimit:1.5;-inkscape-stroke:none"
         d="m 12.302734,380.83594 a 0.2645835,0.2645835 0 0 0 -0.263671,0.26367 0.2645835,0.2645835 0 0 0 0.263671,0.26562 h 0.265625 a 0.2645835,0.2645835 0 0 0 0.263672,-0.26562 0.2645835,0.2645835 0 0 0 -0.263672,-0.26367 z"
         id="path94513" />
      <path
         style="color:#000000;fill:#4895ef;stroke-width:0.794878;stroke-linecap:round;stroke-linejoin:round;stroke-miterlimit:1.5;-inkscape-stroke:none"
         d="m 10.847656,379.77734 a 0.2645835,0.2645835 0 0 0 -0.263672,0.26368 0.2645835,0.2645835 0 0 0 0.263672,0.26562 h 0.265625 a 0.2645835,0.2645835 0 0 0 0.263672,-0.26562 0.2645835,0.2645835 0 0 0 -0.263672,-0.26368 z"
         id="path94515" />
      <path
         style="color:#000000;fill:#4895ef;stroke-width:0.794878;stroke-linecap:round;stroke-linejoin:round;stroke-miterlimit:1.5;-inkscape-stroke:none"
         d="m 10.847656,380.83594 a 0.2645835,0.2645835 0 0 0 -0.263672,0.26367 0.2645835,0.2645835 0 0 0 0.263672,0.26562 h 0.265625 a 0.2645835,0.2645835 0 0 0 0.263672,-0.26562 0.2645835,0.2645835 0 0 0 -0.263672,-0.26367 z"
         id="path94517" />
      <path
         style="color:#000000;fill:#fda35d;stroke-width:0.794878;stroke-linecap:round;stroke-linejoin:round;stroke-miterlimit:1.5;-inkscape-stroke:none"
         d="m 9.3925781,384.00977 a 0.2645835,0.2645835 0 0 0 -0.2636718,0.26562 0.2645835,0.2645835 0 0 0 0.2636718,0.26367 h 0.265625 a 0.2645835,0.2645835 0 0 0 0.2636719,-0.26367 0.2645835,0.2645835 0 0 0 -0.2636719,-0.26562 z"
         id="path95763" />
      <path
         style="color:#000000;fill:#fda35d;stroke-width:0.794878;stroke-linecap:round;stroke-linejoin:round;stroke-miterlimit:1.5;-inkscape-stroke:none"
         d="m 12.302734,384.00977 a 0.2645835,0.2645835 0 0 0 -0.263671,0.26562 0.2645835,0.2645835 0 0 0 0.263671,0.26367 h 0.265625 a 0.2645835,0.2645835 0 0 0 0.263672,-0.26367 0.2645835,0.2645835 0 0 0 -0.263672,-0.26562 z"
         id="path95765" />
      <path
         style="color:#000000;fill:#fda35d;stroke-width:0.794878;stroke-linecap:round;stroke-linejoin:round;stroke-miterlimit:1.5;-inkscape-stroke:none"
         d="m 10.847656,384.00977 a 0.2645835,0.2645835 0 0 0 -0.263672,0.26562 0.2645835,0.2645835 0 0 0 0.263672,0.26367 h 0.265625 a 0.2645835,0.2645835 0 0 0 0.263672,-0.26367 0.2645835,0.2645835 0 0 0 -0.263672,-0.26562 z"
         id="path95767" />
      <path
         style="color:#000000;fill:#3a4d5c;stroke-width:0.794878;stroke-linecap:round;stroke-linejoin:round;stroke-miterlimit:1.5;-inkscape-stroke:none"
         d="m 15.478516,371.83984 a 0.2645835,0.2645835 0 0 0 -0.265625,0.26368 v 3.70507 a 0.2645835,0.2645835 0 0 0 0.265625,0.26368 0.2645835,0.2645835 0 0 0 0.263672,-0.26368 v -3.70507 a 0.2645835,0.2645835 0 0 0 -0.263672,-0.26368 z"
         id="path98376" />
      <path
         style="color:#000000;fill:#3a4d5c;stroke-width:0.794878;stroke-linecap:round;stroke-linejoin:round;stroke-miterlimit:1.5;-inkscape-stroke:none"
         d="m 14.419922,375.54492 a 0.26460996,0.26460996 0 0 0 -0.255859,0.32813 l 0.263671,1.05859 a 0.26460996,0.26460996 0 0 0 0.25586,0.19922 h 0.794922 a 0.26460996,0.26460996 0 0 0 0.263672,-0.26367 v -1.0586 a 0.26460996,0.26460996 0 0 0 -0.263672,-0.26367 z"
         id="path248783" />
      <path
         style="color:#000000;fill:#3a4d5c;stroke-width:0.794878;stroke-linecap:round;stroke-linejoin:round;stroke-miterlimit:1.5;-inkscape-stroke:none"
         d="m 14.419922,371.83984 a 0.26460996,0.26460996 0 0 0 -0.255859,0.32813 l 0.263671,1.05859 a 0.26460996,0.26460996 0 0 0 0.25586,0.20117 h 0.794922 a 0.26460996,0.26460996 0 0 0 0.263672,-0.26562 v -1.05859 a 0.26460996,0.26460996 0 0 0 -0.263672,-0.26368 z"
         id="path248789" />
      <path
         id="path6564"
         style="color:#000000;fill:#3a4d5c;fill-opacity:1;stroke-width:0.794878;stroke-linecap:round;stroke-linejoin:round;stroke-miterlimit:1.5;-inkscape-stroke:none"
         d="M 12.039063,385.59766 H 9.921875 v 0.52916 h 2.117188 z"
         sodipodi:nodetypes="ccccc" />
      <path
         id="path38341"
         style="color:#000000;fill:#0d202b;fill-opacity:1;stroke-width:0.794878;stroke-linecap:round;stroke-linejoin:round;stroke-miterlimit:1.5;-inkscape-stroke:none"
         d="m 15.213025,373.42773 v 0.52968 h 0.529167 v -0.52968 z" />
      <path
         id="path51896"
         style="color:#000000;fill:#0d202b;fill-opacity:1;stroke-width:0.794878;stroke-linecap:round;stroke-linejoin:round;stroke-miterlimit:1.5;-inkscape-stroke:none"
         d="m 15.213025,377.13086 v 0.52968 h 0.529167 v -0.52968 z" />
    </g>
  </g>
</svg>
